<?xml version="1.0" encoding="utf-8"?>
<!-- Generator: Adobe Illustrator 27.5.0, SVG Export Plug-In . SVG Version: 6.00 Build 0)  -->
<svg version="1.1" xmlns="http://www.w3.org/2000/svg" xmlns:xlink="http://www.w3.org/1999/xlink" x="0px" y="0px"
	 viewBox="0 0 500 500" style="enable-background:new 0 0 500 500;" xml:space="preserve">
<g id="Background_Complete">
	<g>
		<g>
			<polygon style="fill:#F5F5F5;" points="275.492,379.033 453.401,381.453 443.746,317.53 			"/>
		</g>
		<g>
			
				<rect x="274.647" y="321.367" transform="matrix(0.9996 -0.03 0.03 0.9996 -10.3195 10.9404)" style="fill:#EBEBEB;" width="170.022" height="56.431"/>
		</g>
		<g>
			<g>
				<path style="fill:#E0E0E0;" d="M422.022,338.282c0.004,0.144-28.464,1.114-63.579,2.168c-35.126,1.054-63.596,1.791-63.6,1.647
					s28.458-1.114,63.585-2.168C393.542,338.875,422.018,338.138,422.022,338.282z"/>
			</g>
		</g>
		<g>
			<g>
				<path style="fill:#E0E0E0;" d="M423.349,352.905c0.004,0.144-28.465,1.114-63.579,2.168c-35.126,1.054-63.596,1.791-63.6,1.647
					c-0.004-0.144,28.458-1.114,63.585-2.168C394.869,353.498,423.345,352.761,423.349,352.905z"/>
			</g>
		</g>
		<g>
			<polygon style="fill:#F5F5F5;" points="323.304,314.406 389.154,312.431 386.044,315.732 390.958,319.114 385.916,322.152 
				391.16,325.845 322.144,327.915 325.999,323.823 323.438,320.195 326.894,317.91 			"/>
		</g>
	</g>
	<g>
		<g>
			<g>
				<path style="fill:#FAFAFA;" d="M28.532,213.57l12.707,48.175c6.058,2.079,12.248,3.814,19.862,1.839L97.141,252.9
					l-17.789-55.207L28.532,213.57z"/>
			</g>
			<g>
				<polygon style="fill:#F5F5F5;" points="25.301,211.817 38.008,259.992 57.87,261.83 93.91,251.147 79.146,196.999 				"/>
			</g>
			<g>
				<path style="fill:#E0E0E0;" d="M43.024,254.584l-5.016,5.407c0,0,4.043,2.525,8.274,2.875c4.23,0.351,7.984,0.032,11.589-1.037
					C57.87,261.83,48.842,261.836,43.024,254.584z"/>
			</g>
		</g>
		<g>
			<polygon style="fill:#EBEBEB;" points="24.935,223.701 44.083,205.394 40.261,201.346 20.576,219.505 			"/>
		</g>
		<g>
			<polygon style="fill:#EBEBEB;" points="88.935,206.828 64.979,195.52 62.571,200.539 86.582,212.402 			"/>
		</g>
		<g>
			<g>
				<path style="fill:#E0E0E0;" d="M77.852,215.751c0.038,0.139-9.094,2.778-20.395,5.893c-11.305,3.117-20.498,5.531-20.536,5.392
					c-0.038-0.139,9.092-2.777,20.397-5.894C68.619,218.026,77.813,215.612,77.852,215.751z"/>
			</g>
		</g>
		<g>
			<g>
				<path style="fill:#E0E0E0;" d="M79.706,223.182c0.038,0.139-9.094,2.778-20.395,5.893c-11.305,3.117-20.498,5.531-20.536,5.392
					c-0.038-0.139,9.092-2.777,20.397-5.894C70.473,225.458,79.668,223.044,79.706,223.182z"/>
			</g>
		</g>
		<g>
			<g>
				<path style="fill:#E0E0E0;" d="M81.74,229.663c0.038,0.139-9.094,2.778-20.395,5.893c-11.305,3.117-20.498,5.531-20.536,5.392
					c-0.038-0.139,9.092-2.777,20.397-5.894C72.507,231.939,81.701,229.525,81.74,229.663z"/>
			</g>
		</g>
		<g>
			<g>
				<path style="fill:#E0E0E0;" d="M83.433,235.976c0.038,0.139-9.094,2.778-20.396,5.893c-11.305,3.117-20.498,5.531-20.536,5.392
					c-0.038-0.139,9.092-2.777,20.397-5.894C74.201,238.251,83.395,235.837,83.433,235.976z"/>
			</g>
		</g>
	</g>
	<g>
		<g>
			<path style="fill:#EBEBEB;" d="M435.771,387.271c-2.94,0.193-5.654,1.876-7.528,4.15c-1.874,2.274-2.979,5.095-3.654,7.964
				c-1.305,5.55-0.202,12.019,1.535,17.449c5.895-2.312,9.376-8.78,10.936-12.172C439.525,399.301,440.726,388.114,435.771,387.271"
				/>
		</g>
		<g>
			<path style="fill:#EBEBEB;" d="M417.752,423.767c1.798-2.757,1.728-6.513,0.152-9.403c-1.576-2.89-4.496-4.92-7.671-5.79
				c-1.468-0.402-3.161-0.538-4.4,0.345c-1.159,0.826-1.622,2.392-1.427,3.801c0.196,1.409,0.952,2.681,1.832,3.8
				C409.255,420.355,412.879,423.513,417.752,423.767"/>
		</g>
		<g>
			<g>
				<path style="fill:#E0E0E0;" d="M417.657,442.183c0.029,0.004,0.107-0.408,0.232-1.152c0.135-0.821,0.308-1.882,0.517-3.156
					c0.39-2.653,1.022-6.427,0.331-10.557c-0.668-4.112-2.42-7.592-4.207-9.647c-0.881-1.04-1.715-1.771-2.33-2.216
					c-0.298-0.236-0.559-0.378-0.725-0.488c-0.17-0.104-0.263-0.154-0.271-0.142c-0.063,0.076,1.422,0.93,3.1,3.031
					c1.697,2.065,3.367,5.487,4.026,9.53c0.679,4.046,0.105,7.784-0.212,10.448c-0.172,1.338-0.312,2.423-0.387,3.176
					C417.653,441.762,417.63,442.18,417.657,442.183z"/>
			</g>
		</g>
		<g>
			<g>
				<path style="fill:#E0E0E0;" d="M434.104,395.709c-0.013-0.005-0.091,0.153-0.226,0.459c-0.148,0.348-0.338,0.794-0.574,1.346
					c-0.492,1.171-1.181,2.875-2.014,4.987c-1.668,4.224-3.892,10.092-6.2,16.626c-2.307,6.537-4.262,12.501-5.616,16.836
					c-0.678,2.167-1.211,3.926-1.564,5.146c-0.163,0.577-0.295,1.044-0.398,1.407c-0.087,0.323-0.126,0.495-0.112,0.499
					c0.014,0.004,0.079-0.159,0.192-0.474c0.122-0.358,0.279-0.816,0.472-1.384c0.415-1.254,0.988-2.986,1.689-5.104
					c1.425-4.31,3.422-10.255,5.728-16.788c2.307-6.53,4.485-12.41,6.083-16.659c0.785-2.089,1.426-3.796,1.891-5.033
					c0.206-0.563,0.372-1.019,0.501-1.374C434.066,395.883,434.117,395.714,434.104,395.709z"/>
			</g>
		</g>
		<g>
			<path style="fill:#EBEBEB;" d="M424.36,429.796c3.332-6.087,9.77-10.365,16.673-11.078c1.758-0.181,3.886,0.05,4.72,1.608
				c0.835,1.561-0.16,3.468-1.32,4.805c-4.829,5.562-13.219,7.705-20.123,5.141"/>
		</g>
		<g>
			<g>
				<path style="fill:#E0E0E0;" d="M438.494,423.517c-0.003-0.028-0.394-0.001-1.102,0.074c-0.354,0.035-0.788,0.08-1.282,0.189
					c-0.494,0.108-1.069,0.179-1.679,0.369c-0.614,0.171-1.292,0.343-1.991,0.619c-0.714,0.235-1.445,0.566-2.212,0.919
					c-1.514,0.744-3.116,1.707-4.631,2.94c-1.504,1.247-2.764,2.629-3.781,3.976c-0.488,0.69-0.954,1.344-1.313,2.005
					c-0.4,0.637-0.691,1.274-0.966,1.849c-0.296,0.566-0.463,1.122-0.654,1.59c-0.192,0.469-0.308,0.889-0.401,1.233
					c-0.19,0.686-0.282,1.067-0.254,1.075c0.089,0.028,0.466-1.507,1.572-3.772c0.288-0.56,0.59-1.18,0.997-1.799
					c0.366-0.644,0.836-1.28,1.324-1.952c1.017-1.313,2.262-2.66,3.739-3.885c1.488-1.211,3.055-2.166,4.536-2.917
					c0.751-0.357,1.465-0.695,2.164-0.94c0.684-0.286,1.348-0.472,1.95-0.659C436.934,423.738,438.507,423.606,438.494,423.517z"/>
			</g>
		</g>
	</g>
</g>
<g id="Background_Simple" style="display:none;">
	<path style="display:inline;fill:#F5F5F5;" d="M326.413,376.871c55.371-6.567,117.381-44.168,125.809-93.199
		c4.863-28.29-0.409-60.897-22.873-78.768c-20.323-16.167-49.539-16.129-74.367-8.516c-21.82,6.691-44.458,18.653-66.179,11.646
		c-18.861-6.085-30.585-24.889-37.536-43.448c-6.951-18.56-10.971-38.583-22.071-55.002
		c-21.293-31.496-67.062-41.756-101.634-25.939c-34.571,15.818-56.342,53.943-56.778,91.959
		c-0.435,38.016,2.843,62.152,19.141,105.627C89.925,281.23,127.523,400.458,326.413,376.871z"/>
</g>
<g id="Floor">
	<g>
		<g>
			<path style="fill:#263238;" d="M462.904,442.387c0,0.144-95.328,0.26-212.894,0.26c-117.607,0-212.914-0.116-212.914-0.26
				c0-0.144,95.308-0.26,212.914-0.26C367.576,442.127,462.904,442.243,462.904,442.387z"/>
		</g>
	</g>
</g>
<g id="Notes">
	<g>
		<path style="fill:#EBEBEB;" d="M243.674,81.977l0.431,8.052c1.15-1.103,2.677-1.816,4.386-1.908
			c3.812-0.204,7.07,2.75,7.276,6.598c0.206,3.848-2.718,7.133-6.53,7.337c-1.709,0.091-3.303-0.455-4.564-1.429l0.432,8.073
			c1.15-1.103,2.677-1.816,4.386-1.908c3.812-0.204,7.07,2.75,7.276,6.598c0.206,3.848-2.718,7.133-6.53,7.337
			c-1.709,0.091-3.303-0.455-4.564-1.429l0.432,8.073c1.15-1.103,2.677-1.816,4.386-1.908c3.812-0.204,7.07,2.75,7.276,6.598
			c0.206,3.848-2.718,7.133-6.53,7.337c-1.709,0.091-3.303-0.455-4.564-1.429l0.432,8.073c1.15-1.103,2.677-1.816,4.386-1.908
			c3.812-0.204,7.07,2.75,7.276,6.598c0.206,3.848-2.718,7.133-6.53,7.337c-1.709,0.091-3.303-0.455-4.564-1.429l0.432,8.073
			c1.15-1.103,2.677-1.816,4.386-1.908c3.812-0.204,7.07,2.75,7.276,6.598c0.206,3.848-2.718,7.133-6.53,7.337
			c-1.709,0.091-3.303-0.455-4.564-1.429l0.432,8.073c1.15-1.103,2.677-1.816,4.386-1.908c3.812-0.204,7.07,2.75,7.276,6.598
			s-2.718,7.133-6.53,7.337c-1.709,0.091-3.303-0.455-4.564-1.429l0.268,5.009L465,193.838l-10.897-125.27L243.674,81.977z"/>
		<g>
			<g>
				<g>
					<path style="fill:#F5F5F5;" d="M238.918,76.818l0.431,8.052c1.15-1.103,2.677-1.816,4.386-1.908
						c3.812-0.204,7.07,2.75,7.276,6.598c0.206,3.848-2.718,7.133-6.53,7.337c-1.709,0.091-3.303-0.455-4.564-1.429l0.432,8.073
						c1.15-1.103,2.677-1.816,4.386-1.908c3.812-0.204,7.07,2.75,7.276,6.598c0.206,3.848-2.718,7.133-6.53,7.337
						c-1.709,0.091-3.303-0.455-4.564-1.429l0.432,8.073c1.15-1.103,2.677-1.816,4.386-1.908c3.812-0.204,7.07,2.75,7.276,6.598
						c0.206,3.848-2.718,7.133-6.53,7.337c-1.709,0.091-3.303-0.455-4.564-1.429l0.432,8.073c1.15-1.103,2.677-1.816,4.386-1.908
						c3.812-0.204,7.07,2.75,7.276,6.598c0.206,3.848-2.718,7.133-6.53,7.337c-1.709,0.091-3.303-0.455-4.564-1.429l0.432,8.073
						c1.15-1.103,2.677-1.816,4.386-1.908c3.812-0.204,7.07,2.75,7.276,6.598s-2.718,7.133-6.53,7.337
						c-1.709,0.091-3.303-0.455-4.564-1.429l0.432,8.073c1.15-1.103,2.677-1.816,4.386-1.908c3.812-0.204,7.07,2.75,7.276,6.598
						c0.206,3.848-2.718,7.133-6.53,7.337c-1.709,0.091-3.303-0.455-4.564-1.429l0.268,5.009l215.01-11.505l-6.261-117.02
						L238.918,76.818z"/>
				</g>
				<g>
					<g>
						<path style="fill:#E0E0E0;" d="M455.167,88.469c0.008,0.144-48.122,2.836-107.486,6.012
							c-59.385,3.178-107.517,5.636-107.524,5.493c-0.008-0.144,48.111-2.835,107.497-6.013
							C407.018,90.785,455.16,88.326,455.167,88.469z"/>
					</g>
				</g>
				<g>
					<g>
						<path style="fill:#E0E0E0;" d="M456.169,107.191c0.008,0.144-48.122,2.836-107.486,6.012
							c-59.385,3.177-107.517,5.636-107.524,5.492c-0.008-0.143,48.111-2.835,107.496-6.012
							C408.02,109.507,456.161,107.047,456.169,107.191z"/>
					</g>
				</g>
				<g>
					<g>
						<path style="fill:#E0E0E0;" d="M457.171,125.913c0.008,0.144-48.122,2.836-107.486,6.012
							c-59.385,3.178-107.517,5.636-107.524,5.493s48.111-2.835,107.496-6.013C409.021,128.228,457.163,125.769,457.171,125.913z"/>
					</g>
				</g>
				<g>
					<g>
						<path style="fill:#E0E0E0;" d="M458.173,144.634c0.008,0.144-48.122,2.836-107.486,6.012
							c-59.385,3.178-107.517,5.636-107.524,5.492c-0.008-0.143,48.111-2.835,107.497-6.012
							C410.023,146.95,458.165,144.491,458.173,144.634z"/>
					</g>
				</g>
				<g>
					<g>
						<path style="fill:#E0E0E0;" d="M459.174,163.356c0.008,0.144-48.122,2.836-107.486,6.012
							c-59.385,3.178-107.517,5.636-107.524,5.493c-0.008-0.144,48.111-2.835,107.496-6.012
							C411.025,165.672,459.167,163.213,459.174,163.356z"/>
					</g>
				</g>
				<g>
					
						<rect x="271.692" y="75.135" transform="matrix(0.9986 -0.0534 0.0534 0.9986 -6.7571 14.7218)" style="fill:#E8505B;" width="0.501" height="117.187"/>
				</g>
				<g>
					<g>
						<path style="fill:#E0E0E0;" d="M294.552,191.196c-0.144,0.008-1.662-26.184-3.391-58.493
							c-1.729-32.32-3.014-58.519-2.871-58.527c0.144-0.008,1.661,26.178,3.391,58.499
							C293.41,164.984,294.695,191.189,294.552,191.196z"/>
					</g>
				</g>
				<g>
					<g>
						<path style="fill:#E0E0E0;" d="M256.275,193.244c-0.144,0.008-1.662-26.184-3.391-58.493
							c-1.729-32.321-3.014-58.519-2.871-58.527c0.144-0.008,1.661,26.178,3.391,58.499
							C255.133,167.032,256.419,193.236,256.275,193.244z"/>
					</g>
				</g>
				<g>
					<g>
						<path style="fill:#E0E0E0;" d="M315.515,190.074c-0.144,0.008-1.662-26.184-3.391-58.493
							c-1.729-32.32-3.014-58.519-2.871-58.527c0.144-0.008,1.661,26.178,3.391,58.499
							C314.373,163.863,315.658,190.067,315.515,190.074z"/>
					</g>
				</g>
				<g>
					<g>
						<path style="fill:#E0E0E0;" d="M336.478,188.953c-0.144,0.008-1.662-26.184-3.391-58.493
							c-1.729-32.32-3.014-58.519-2.871-58.527c0.144-0.008,1.661,26.178,3.391,58.499
							C335.336,162.741,336.621,188.945,336.478,188.953z"/>
					</g>
				</g>
				<g>
					<g>
						<path style="fill:#E0E0E0;" d="M357.441,187.831c-0.144,0.008-1.662-26.184-3.391-58.493
							c-1.729-32.32-3.014-58.519-2.871-58.527c0.143-0.008,1.661,26.178,3.391,58.499
							C356.299,161.619,357.584,187.824,357.441,187.831z"/>
					</g>
				</g>
				<g>
					<g>
						<path style="fill:#E0E0E0;" d="M378.404,186.71c-0.144,0.008-1.662-26.184-3.391-58.493
							c-1.729-32.32-3.014-58.519-2.871-58.527c0.143-0.008,1.661,26.178,3.391,58.499
							C377.262,160.498,378.547,186.702,378.404,186.71z"/>
					</g>
				</g>
				<g>
					<g>
						<path style="fill:#E0E0E0;" d="M399.367,185.588c-0.144,0.008-1.662-26.184-3.391-58.493
							c-1.729-32.32-3.014-58.519-2.871-58.527c0.144-0.008,1.661,26.178,3.391,58.499
							C398.225,159.376,399.51,185.58,399.367,185.588z"/>
					</g>
				</g>
				<g>
					<g>
						<path style="fill:#E0E0E0;" d="M420.329,184.466c-0.144,0.008-1.662-26.184-3.391-58.493
							c-1.729-32.321-3.014-58.519-2.871-58.527c0.144-0.008,1.661,26.178,3.391,58.499
							C419.188,158.254,420.473,184.458,420.329,184.466z"/>
					</g>
				</g>
				<g>
					<g>
						<path style="fill:#E0E0E0;" d="M441.292,183.345c-0.144,0.008-1.662-26.184-3.391-58.493
							c-1.729-32.32-3.014-58.519-2.871-58.527c0.143-0.008,1.661,26.178,3.391,58.499
							C440.151,157.133,441.436,183.337,441.292,183.345z"/>
					</g>
				</g>
			</g>
			<g>
				<g>
					<path style="fill:#263238;" d="M438.679,112.481c0,0.009-0.131,0.025-0.388,0.047c-0.283,0.021-0.661,0.05-1.143,0.086
						c-1.034,0.066-2.51,0.16-4.396,0.281c-3.848,0.221-9.367,0.537-16.174,0.928c-13.659,0.756-32.53,1.756-53.376,2.786
						c-20.854,1.03-39.734,1.891-53.405,2.41c-6.835,0.26-12.368,0.434-16.194,0.501c-3.818,0.069-5.96,0.023-5.927-0.142
						c-0.015,0.041,0.517,0.067,1.522,0.054c1.006-0.011,2.49-0.05,4.401-0.115c3.822-0.129,9.351-0.359,16.184-0.666
						c13.688-0.657,32.552-1.562,53.394-2.562c20.834-1.028,39.695-1.959,53.383-2.634c6.811-0.321,12.332-0.581,16.183-0.763
						c1.888-0.079,3.366-0.14,4.401-0.183c0.483-0.015,0.862-0.026,1.145-0.035C438.546,112.47,438.679,112.472,438.679,112.481z"/>
				</g>
			</g>
			<g>
				<g>
					<path style="fill:#263238;" d="M443.033,133.862c0.007,0.144-34.693,1.852-77.494,3.815
						c-42.816,1.964-77.519,3.439-77.525,3.295c-0.007-0.144,34.686-1.851,77.501-3.815
						C408.315,135.194,443.026,133.719,443.033,133.862z"/>
				</g>
			</g>
			<g>
				<g>
					<path style="fill:#263238;" d="M445.33,152.584c0.007,0.144-34.693,1.852-77.494,3.815
						c-42.816,1.964-77.519,3.438-77.525,3.295c-0.007-0.144,34.686-1.851,77.502-3.815
						C410.613,153.916,445.323,152.441,445.33,152.584z"/>
				</g>
			</g>
			<g>
				<path style="fill:#E0E0E0;" d="M262.986,89.093c0.945,4.647,2.967,9.362,6.871,12.054c4.437,3.059,10.924,2.708,15.005-0.812
					c4.081-3.52,5.38-9.886,3.004-14.723c-2.375-4.837-8.207-7.702-13.487-6.625"/>
			</g>
			<g>
				<g>
					<path style="fill:#455A64;" d="M262.468,89.055c0.289,5.395,4.896,9.535,10.292,9.246c5.395-0.289,9.535-4.896,9.246-10.292
						c-0.289-5.395-4.896-9.535-10.292-9.246C266.319,79.052,262.179,83.66,262.468,89.055z"/>
				</g>
				<g>
					<path style="fill:#455A64;" d="M256.848,85.438c0.173,3.238,2.938,5.722,6.176,5.548c3.237-0.173,5.722-2.938,5.548-6.176
						c-0.173-3.238-2.938-5.722-6.176-5.548C259.159,79.435,256.675,82.2,256.848,85.438z"/>
				</g>
				<g>
					<g>
						<path style="fill:#263238;" d="M262.316,90.868c0.01-0.101,0.889,0.128,2.209-0.248c1.282-0.347,3.041-1.463,3.734-3.423
							c0.678-1.958,0.089-3.94-0.633-5.06c-0.726-1.166-1.514-1.607-1.454-1.686c0.015-0.026,0.224,0.054,0.558,0.278
							c0.336,0.221,0.777,0.617,1.202,1.204c0.847,1.138,1.566,3.265,0.818,5.439c-0.38,1.066-1.079,1.927-1.839,2.52
							c-0.769,0.588-1.584,0.939-2.296,1.086c-0.711,0.15-1.306,0.141-1.702,0.071C262.516,90.983,262.309,90.897,262.316,90.868z"
							/>
					</g>
				</g>
				<g>
					<g>
						<path style="fill:#263238;" d="M267.234,81.531c0.048-0.146,1.561,0.607,3.436,0.17c1.879-0.425,2.911-1.762,3.018-1.652
							c0.053,0.037-0.122,0.423-0.6,0.902c-0.47,0.477-1.278,1.022-2.301,1.257c-1.023,0.235-1.988,0.097-2.619-0.127
							C267.528,81.858,267.202,81.587,267.234,81.531z"/>
					</g>
				</g>
				<g>
					<g>
						<path style="fill:#263238;" d="M268.745,96.397c-0.08,0.008-0.155-0.473-0.425-1.185c-0.265-0.709-0.769-1.649-1.602-2.437
							c-0.833-0.787-1.801-1.237-2.524-1.461c-0.726-0.229-1.211-0.277-1.207-0.357c-0.001-0.062,0.499-0.149,1.297,0
							c0.79,0.143,1.877,0.576,2.792,1.439c0.914,0.863,1.408,1.924,1.595,2.705C268.865,95.89,268.807,96.394,268.745,96.397z"/>
					</g>
				</g>
			</g>
			<g>
				<path style="fill:#E0E0E0;" d="M428.26,82.19c0.945,4.647,2.967,9.362,6.871,12.054c4.437,3.059,10.924,2.708,15.005-0.812
					c4.081-3.52,5.38-9.886,3.004-14.723c-2.375-4.838-8.207-7.702-13.487-6.626"/>
			</g>
			<g>
				<g>
					<path style="fill:#E8505B;" d="M447.155,79.538c0.279,5.214-3.721,9.666-8.935,9.945c-5.214,0.279-9.667-3.721-9.945-8.935
						c-0.279-5.214,3.721-9.666,8.935-9.945C442.423,70.324,446.876,74.324,447.155,79.538z"/>
				</g>
				<g>
					<circle style="fill:#E8505B;" cx="446.517" cy="75.786" r="5.673"/>
				</g>
				<g>
					<g>
						<path style="fill:#263238;" d="M447.488,81.264c0.01,0.029-0.18,0.133-0.554,0.238c-0.373,0.109-0.944,0.18-1.644,0.11
							c-0.7-0.066-1.52-0.32-2.321-0.806c-0.793-0.492-1.555-1.247-2.031-2.234c-0.945-2.015-0.472-4.136,0.227-5.317
							c0.706-1.232,1.531-1.646,1.544-1.603c0.067,0.072-0.642,0.579-1.217,1.773c-0.577,1.151-0.936,3.113-0.084,4.921
							c0.867,1.808,2.668,2.699,3.934,2.901C446.645,81.474,447.467,81.166,447.488,81.264z"/>
					</g>
				</g>
				<g>
					<g>
						<path style="fill:#263238;" d="M441.8,72.8c0.037,0.053-0.247,0.349-0.838,0.631c-0.584,0.282-1.498,0.516-2.506,0.395
							c-1.009-0.12-1.843-0.563-2.343-0.974c-0.508-0.414-0.715-0.768-0.666-0.81c0.095-0.12,1.226,1.054,3.071,1.267
							C440.36,73.535,441.736,72.661,441.8,72.8z"/>
					</g>
				</g>
				<g>
					<g>
						<path style="fill:#263238;" d="M441.881,87.24c-0.063,0.004-0.172-0.475-0.069-1.254c0.098-0.771,0.463-1.843,1.253-2.768
							c0.79-0.925,1.793-1.453,2.538-1.671c0.753-0.224,1.243-0.191,1.249-0.128c0.012,0.079-0.449,0.177-1.121,0.474
							c-0.67,0.291-1.552,0.823-2.27,1.664c-0.718,0.841-1.105,1.795-1.288,2.502C441.986,86.769,441.961,87.239,441.881,87.24z"/>
					</g>
				</g>
			</g>
		</g>
	</g>
	<g>
		<g>
			<g>
				<path style="fill:#E0E0E0;" d="M94.322,61.826l-21.69,108.64c10.068,10.072,20.737,19.586,37.876,23.08l82.424,13.875
					L211.343,79.77L94.322,61.826z"/>
			</g>
			<g>
				<polygon style="fill:#E8505B;" points="89.582,55.167 67.891,163.807 105.767,186.888 188.192,200.762 211.61,78.183 				"/>
			</g>
			<g>
				<path style="fill:#E8505B;" d="M83.193,157.908l-15.302,5.9c0,0,5.609,8.994,13.716,13.827
					c8.107,4.834,15.915,7.865,24.16,9.253C105.767,186.888,87.728,178.077,83.193,157.908z"/>
			</g>
			<g style="opacity:0.3;">
				<path d="M83.193,157.908c-5.908,4.02-12.382,8.983-15.302,5.9c0,0,5.609,8.994,13.716,13.827
					c8.107,4.834,15.915,7.865,24.16,9.253C105.767,186.888,87.728,178.077,83.193,157.908z"/>
			</g>
		</g>
		<g>
			<polygon style="fill:#E0E0E0;" points="77.239,78.546 133.372,60.689 129.695,48.87 72.631,65.906 			"/>
		</g>
		<g>
			<polygon style="fill:#E0E0E0;" points="221.559,107.38 184.759,61.386 175.044,69.057 211.413,116.215 			"/>
		</g>
		<g>
			<g>
				<path style="fill:#263238;" d="M190.702,114.372c-0.027,0.141-20.82-3.651-46.438-8.47c-25.626-4.821-46.372-8.841-46.346-8.983
					c0.027-0.141,20.816,3.651,46.442,8.471C169.979,110.209,190.729,114.231,190.702,114.372z"/>
			</g>
		</g>
		<g>
			<g>
				<path style="fill:#263238;" d="M187.145,131.028c-0.027,0.141-20.82-3.651-46.437-8.47c-25.626-4.82-46.372-8.841-46.346-8.983
					c0.026-0.141,20.815,3.651,46.442,8.471C166.421,126.865,187.172,130.887,187.145,131.028z"/>
			</g>
		</g>
		<g>
			<g>
				<path style="fill:#263238;" d="M184.874,145.96c-0.027,0.141-20.82-3.651-46.438-8.47c-25.626-4.82-46.372-8.841-46.346-8.983
					c0.027-0.141,20.816,3.651,46.442,8.471C164.151,141.797,184.901,145.818,184.874,145.96z"/>
			</g>
		</g>
		<g>
			<g>
				<path style="fill:#263238;" d="M182.089,160.223c-0.027,0.141-20.82-3.651-46.438-8.47c-25.626-4.821-46.372-8.842-46.346-8.983
					c0.027-0.141,20.815,3.651,46.442,8.471C161.366,156.06,182.116,160.082,182.089,160.223z"/>
			</g>
		</g>
	</g>
	<g>
		<g>
			<polygon style="fill:#E0E0E0;" points="269.453,276.287 445.237,298.703 442.876,234.359 			"/>
		</g>
		<g>
			
				<rect x="271.389" y="228.513" transform="matrix(0.9965 0.0832 -0.0832 0.9965 22.5709 -28.7179)" style="fill:#455A64;" width="169.336" height="56.203"/>
		</g>
		<g>
			<g>
				<path style="fill:#263238;" d="M419.043,252.449c-0.012,0.143-28.294-2.099-63.161-5.009
					c-34.879-2.91-63.135-5.385-63.123-5.528c0.012-0.143,28.288,2.099,63.167,5.009
					C390.793,249.831,419.055,252.306,419.043,252.449z"/>
			</g>
		</g>
		<g>
			<g>
				<path style="fill:#263238;" d="M418.711,267.069c-0.012,0.143-28.294-2.099-63.161-5.009
					c-34.879-2.91-63.135-5.385-63.123-5.528c0.012-0.143,28.287,2.099,63.167,5.009
					C390.461,264.451,418.723,266.926,418.711,267.069z"/>
			</g>
		</g>
		<g>
			<polygon style="fill:#EBEBEB;" points="324.04,217.713 389.426,223.169 385.978,226.086 390.46,229.986 385.128,232.425 
				389.902,236.669 321.372,230.951 325.647,227.335 323.521,223.457 327.199,221.585 			"/>
		</g>
	</g>
	<g>
		<g>
			<path style="fill:#E0E0E0;" d="M243.449,235.066c0.671,1.132,1.063,2.449,1.063,3.861c0,4.192-3.399,7.591-7.591,7.591
				c-4.193,0-7.591-3.399-7.591-7.591c0-1.412,0.392-2.729,1.063-3.861h-8.805c0.671,1.132,1.063,2.449,1.063,3.861
				c0,4.192-3.399,7.591-7.591,7.591c-4.193,0-7.591-3.399-7.591-7.591c0-1.412,0.392-2.729,1.064-3.861h-8.805
				c0.671,1.132,1.063,2.449,1.063,3.861c0,4.192-3.399,7.591-7.591,7.591c-4.192,0-7.591-3.399-7.591-7.591
				c0-1.412,0.392-2.729,1.063-3.861h-8.805c0.671,1.132,1.064,2.449,1.064,3.861c0,4.192-3.399,7.591-7.591,7.591
				c-4.193,0-7.591-3.399-7.591-7.591c0-1.412,0.392-2.729,1.064-3.861h-8.805c0.671,1.132,1.064,2.449,1.064,3.861
				c0,4.192-3.399,7.591-7.591,7.591c-4.192,0-7.591-3.399-7.591-7.591c0-1.412,0.392-2.729,1.063-3.861h-8.805
				c0.671,1.132,1.063,2.449,1.063,3.861c0,4.192-3.399,7.591-7.591,7.591c-4.192,0-7.591-3.399-7.591-7.591
				c0-1.412,0.392-2.729,1.064-3.861h-5.515v156.99l137.333,7.528l-6.55-164.518H243.449z"/>
		</g>
		<g>
			<g>
				<defs>
					<path id="SVGID_1_" d="M241.452,230.777c0.671,1.132,1.063,2.449,1.063,3.861c0,4.192-3.399,7.591-7.591,7.591
						s-7.591-3.399-7.591-7.591c0-1.412,0.392-2.729,1.063-3.861h-8.805c0.671,1.132,1.064,2.449,1.064,3.861
						c0,4.192-3.399,7.591-7.591,7.591c-4.192,0-7.591-3.399-7.591-7.591c0-1.412,0.392-2.729,1.064-3.861h-8.805
						c0.671,1.132,1.064,2.449,1.064,3.861c0,4.192-3.399,7.591-7.591,7.591c-4.192,0-7.591-3.399-7.591-7.591
						c0-1.412,0.392-2.729,1.063-3.861h-8.805c0.671,1.132,1.064,2.449,1.064,3.861c0,4.192-3.399,7.591-7.591,7.591
						s-7.591-3.399-7.591-7.591c0-1.412,0.392-2.729,1.063-3.861h-8.805c0.671,1.132,1.064,2.449,1.064,3.861
						c0,4.192-3.399,7.591-7.591,7.591s-7.591-3.399-7.591-7.591c0-1.412,0.392-2.729,1.063-3.861h-8.805
						c0.671,1.132,1.063,2.449,1.063,3.861c0,4.192-3.399,7.591-7.591,7.591c-4.192,0-7.591-3.399-7.591-7.591
						c0-1.412,0.392-2.729,1.063-3.861h-5.515v156.99h130.783v-156.99H241.452z"/>
				</defs>
				<clipPath id="SVGID_00000013161586151275836900000016976974149319441562_">
					<use xlink:href="#SVGID_1_"  style="overflow:visible;"/>
				</clipPath>
				<g style="clip-path:url(#SVGID_00000013161586151275836900000016976974149319441562_);">
					<path style="fill:#F5F5F5;" d="M241.452,230.777c0.671,1.132,1.063,2.449,1.063,3.861c0,4.192-3.399,7.591-7.591,7.591
						s-7.591-3.399-7.591-7.591c0-1.412,0.392-2.729,1.063-3.861h-8.805c0.671,1.132,1.064,2.449,1.064,3.861
						c0,4.192-3.399,7.591-7.591,7.591c-4.192,0-7.591-3.399-7.591-7.591c0-1.412,0.392-2.729,1.064-3.861h-8.805
						c0.671,1.132,1.064,2.449,1.064,3.861c0,4.192-3.399,7.591-7.591,7.591c-4.192,0-7.591-3.399-7.591-7.591
						c0-1.412,0.392-2.729,1.063-3.861h-8.805c0.671,1.132,1.064,2.449,1.064,3.861c0,4.192-3.399,7.591-7.591,7.591
						s-7.591-3.399-7.591-7.591c0-1.412,0.392-2.729,1.063-3.861h-8.805c0.671,1.132,1.064,2.449,1.064,3.861
						c0,4.192-3.399,7.591-7.591,7.591s-7.591-3.399-7.591-7.591c0-1.412,0.392-2.729,1.063-3.861h-8.805
						c0.671,1.132,1.063,2.449,1.063,3.861c0,4.192-3.399,7.591-7.591,7.591c-4.192,0-7.591-3.399-7.591-7.591
						c0-1.412,0.392-2.729,1.063-3.861h-5.515v156.99h130.783v-156.99H241.452z"/>
				</g>
				<g style="clip-path:url(#SVGID_00000013161586151275836900000016976974149319441562_);">
					<g>
						<path style="fill:#E0E0E0;" d="M105.603,394.996c-0.144,0.001-0.649-38.044-1.129-84.966
							c-0.48-46.939-0.752-84.978-0.609-84.98c0.144-0.002,0.649,38.036,1.129,84.975
							C105.474,356.947,105.747,394.995,105.603,394.996z"/>
					</g>
				</g>
				<g style="clip-path:url(#SVGID_00000013161586151275836900000016976974149319441562_);">
					<g>
						<path style="fill:#E0E0E0;" d="M126.595,394.782c-0.144,0.001-0.649-38.044-1.129-84.966
							c-0.48-46.939-0.752-84.979-0.609-84.98c0.144-0.002,0.649,38.036,1.129,84.975
							C126.466,356.732,126.739,394.78,126.595,394.782z"/>
					</g>
				</g>
				<g style="clip-path:url(#SVGID_00000013161586151275836900000016976974149319441562_);">
					<g>
						<path style="fill:#E0E0E0;" d="M137.02,394.782c-0.144,0.001-0.649-38.044-1.129-84.966
							c-0.48-46.939-0.752-84.979-0.608-84.98c0.144-0.002,0.649,38.036,1.129,84.975
							C136.892,356.732,137.164,394.78,137.02,394.782z"/>
					</g>
				</g>
				<g style="clip-path:url(#SVGID_00000013161586151275836900000016976974149319441562_);">
					<g>
						<path style="fill:#E0E0E0;" d="M158.235,394.782c-0.144,0.001-0.65-38.044-1.129-84.966
							c-0.48-46.939-0.752-84.979-0.609-84.98c0.144-0.002,0.649,38.036,1.129,84.975
							C158.106,356.732,158.379,394.78,158.235,394.782z"/>
					</g>
				</g>
				<g style="clip-path:url(#SVGID_00000013161586151275836900000016976974149319441562_);">
					<g>
						<path style="fill:#E0E0E0;" d="M179.449,394.782c-0.144,0.001-0.65-38.044-1.129-84.966
							c-0.48-46.939-0.752-84.979-0.608-84.98c0.144-0.002,0.649,38.036,1.129,84.975
							C179.321,356.732,179.593,394.78,179.449,394.782z"/>
					</g>
				</g>
				<g style="clip-path:url(#SVGID_00000013161586151275836900000016976974149319441562_);">
					<g>
						<path style="fill:#E0E0E0;" d="M200.664,394.782c-0.144,0.001-0.65-38.044-1.129-84.966
							c-0.48-46.939-0.752-84.979-0.609-84.98c0.144-0.002,0.649,38.036,1.129,84.975
							C200.535,356.732,200.808,394.78,200.664,394.782z"/>
					</g>
				</g>
				<g style="clip-path:url(#SVGID_00000013161586151275836900000016976974149319441562_);">
					<g>
						<path style="fill:#E0E0E0;" d="M220.793,394.782c-0.144,0.001-0.65-38.044-1.129-84.966
							c-0.48-46.939-0.752-84.979-0.608-84.98c0.144-0.002,0.649,38.036,1.129,84.975
							C220.664,356.732,220.937,394.78,220.793,394.782z"/>
					</g>
				</g>
				<g style="clip-path:url(#SVGID_00000013161586151275836900000016976974149319441562_);">
					<g>
						<path style="fill:#E0E0E0;" d="M240.924,394.782c-0.144,0.001-0.65-38.044-1.129-84.966
							c-0.48-46.939-0.752-84.979-0.608-84.98c0.144-0.002,0.649,38.036,1.129,84.975
							C240.795,356.732,241.067,394.78,240.924,394.782z"/>
					</g>
				</g>
				<g style="clip-path:url(#SVGID_00000013161586151275836900000016976974149319441562_);">
					<g>
						<path style="fill:#E0E0E0;" d="M147.587,394.567c-0.144,0.001-0.649-38.044-1.129-84.966
							c-0.48-46.939-0.752-84.979-0.608-84.98c0.144-0.002,0.649,38.036,1.129,84.974
							C147.458,356.517,147.73,394.565,147.587,394.567z"/>
					</g>
				</g>
				<g style="clip-path:url(#SVGID_00000013161586151275836900000016976974149319441562_);">
					<g>
						<path style="fill:#E0E0E0;" d="M168.579,394.352c-0.144,0.002-0.65-38.044-1.129-84.966
							c-0.48-46.939-0.752-84.978-0.609-84.98c0.144-0.001,0.649,38.036,1.129,84.975
							C168.45,356.303,168.722,394.351,168.579,394.352z"/>
					</g>
				</g>
				<g style="clip-path:url(#SVGID_00000013161586151275836900000016976974149319441562_);">
					<g>
						<path style="fill:#E0E0E0;" d="M189.57,394.138c-0.144,0.001-0.649-38.044-1.129-84.966
							c-0.48-46.939-0.752-84.979-0.608-84.98c0.144-0.001,0.649,38.036,1.129,84.975
							C189.442,356.088,189.714,394.136,189.57,394.138z"/>
					</g>
				</g>
				<g style="clip-path:url(#SVGID_00000013161586151275836900000016976974149319441562_);">
					<g>
						<path style="fill:#E0E0E0;" d="M210.562,393.923c-0.144,0.001-0.65-38.044-1.129-84.966
							c-0.48-46.939-0.752-84.979-0.609-84.98c0.144-0.001,0.649,38.036,1.129,84.975
							C210.433,355.874,210.706,393.922,210.562,393.923z"/>
					</g>
				</g>
				<g style="clip-path:url(#SVGID_00000013161586151275836900000016976974149319441562_);">
					<g>
						<path style="fill:#E0E0E0;" d="M230.685,394.996c-0.144,0.001-0.65-38.044-1.129-84.966
							c-0.48-46.939-0.752-84.978-0.609-84.98c0.144-0.002,0.649,38.036,1.129,84.975
							C230.556,356.947,230.829,394.995,230.685,394.996z"/>
					</g>
				</g>
				<g style="clip-path:url(#SVGID_00000013161586151275836900000016976974149319441562_);">
					<g>
						<path style="fill:#E0E0E0;" d="M252.546,393.494c-0.144,0.001-0.649-38.044-1.129-84.966
							c-0.48-46.939-0.752-84.979-0.609-84.98c0.144-0.001,0.649,38.036,1.129,84.975
							C252.417,355.444,252.69,393.492,252.546,393.494z"/>
					</g>
				</g>
				<g style="clip-path:url(#SVGID_00000013161586151275836900000016976974149319441562_);">
					<g>
						<path style="fill:#E0E0E0;" d="M275.068,373.578c0.001,0.144-38.044,0.641-84.967,1.109
							c-46.939,0.469-84.979,0.733-84.98,0.589c-0.002-0.144,38.036-0.64,84.975-1.109
							C237.019,373.697,275.067,373.434,275.068,373.578z"/>
					</g>
				</g>
				<g style="clip-path:url(#SVGID_00000013161586151275836900000016976974149319441562_);">
					<g>
						<path style="fill:#E0E0E0;" d="M275.949,384.312c0.001,0.144-38.044,0.641-84.967,1.109
							c-46.939,0.469-84.979,0.733-84.98,0.589c-0.001-0.144,38.036-0.64,84.975-1.109
							C237.899,384.431,275.947,384.168,275.949,384.312z"/>
					</g>
				</g>
				<g style="clip-path:url(#SVGID_00000013161586151275836900000016976974149319441562_);">
					<g>
						<path style="fill:#E0E0E0;" d="M274.858,352.586c0.001,0.144-38.044,0.641-84.967,1.109
							c-46.939,0.469-84.979,0.733-84.98,0.589s38.036-0.641,84.975-1.109C236.809,352.706,274.857,352.442,274.858,352.586z"/>
					</g>
				</g>
				<g style="clip-path:url(#SVGID_00000013161586151275836900000016976974149319441562_);">
					<g>
						<path style="fill:#E0E0E0;" d="M274.649,331.594c0.001,0.144-38.044,0.641-84.967,1.109
							c-46.939,0.469-84.979,0.733-84.98,0.589c-0.001-0.144,38.036-0.64,84.975-1.109
							C236.599,331.714,274.647,331.45,274.649,331.594z"/>
					</g>
				</g>
				<g style="clip-path:url(#SVGID_00000013161586151275836900000016976974149319441562_);">
					<g>
						<path style="fill:#E0E0E0;" d="M274.439,310.602c0.001,0.144-38.044,0.641-84.967,1.109
							c-46.939,0.469-84.979,0.733-84.98,0.589c-0.002-0.144,38.036-0.64,84.975-1.109
							C236.389,310.722,274.437,310.458,274.439,310.602z"/>
					</g>
				</g>
				<g style="clip-path:url(#SVGID_00000013161586151275836900000016976974149319441562_);">
					<g>
						<path style="fill:#E0E0E0;" d="M274.229,289.61c0.001,0.144-38.044,0.641-84.967,1.109
							c-46.939,0.469-84.979,0.733-84.98,0.589c-0.001-0.144,38.036-0.641,84.975-1.109
							C236.179,289.73,274.228,289.466,274.229,289.61z"/>
					</g>
				</g>
				<g style="clip-path:url(#SVGID_00000013161586151275836900000016976974149319441562_);">
					<g>
						<path style="fill:#E0E0E0;" d="M274.019,268.618c0.001,0.144-38.044,0.641-84.967,1.109
							c-46.939,0.469-84.979,0.733-84.98,0.589c-0.001-0.144,38.036-0.64,84.975-1.109
							C235.97,268.738,274.018,268.474,274.019,268.618z"/>
					</g>
				</g>
				<g style="clip-path:url(#SVGID_00000013161586151275836900000016976974149319441562_);">
					<g>
						<path style="fill:#E0E0E0;" d="M273.81,247.626c0.001,0.144-38.044,0.641-84.967,1.109
							c-46.939,0.469-84.979,0.733-84.98,0.589c-0.001-0.144,38.036-0.64,84.975-1.109
							C235.76,247.746,273.808,247.483,273.81,247.626z"/>
					</g>
				</g>
				<g style="clip-path:url(#SVGID_00000013161586151275836900000016976974149319441562_);">
					<g>
						<path style="fill:#E0E0E0;" d="M273.81,239.219c0.001,0.144-38.044,0.641-84.967,1.109
							c-46.939,0.469-84.979,0.732-84.98,0.589c-0.001-0.144,38.036-0.64,84.975-1.109
							C235.76,239.338,273.808,239.075,273.81,239.219z"/>
					</g>
				</g>
				<g style="clip-path:url(#SVGID_00000013161586151275836900000016976974149319441562_);">
					<g>
						<path style="fill:#E0E0E0;" d="M273.81,258.352c0.001,0.144-38.044,0.641-84.967,1.109
							c-46.939,0.469-84.979,0.733-84.98,0.589c-0.001-0.144,38.036-0.641,84.975-1.109
							C235.76,258.472,273.808,258.208,273.81,258.352z"/>
					</g>
				</g>
				<g style="clip-path:url(#SVGID_00000013161586151275836900000016976974149319441562_);">
					<g>
						<path style="fill:#E0E0E0;" d="M273.81,279.177c0.001,0.144-38.044,0.641-84.967,1.109
							c-46.939,0.469-84.979,0.732-84.98,0.589c-0.001-0.144,38.036-0.641,84.975-1.109
							C235.76,279.296,273.808,279.033,273.81,279.177z"/>
					</g>
				</g>
				<g style="clip-path:url(#SVGID_00000013161586151275836900000016976974149319441562_);">
					<g>
						<path style="fill:#E0E0E0;" d="M273.81,300.001c0.001,0.144-38.044,0.641-84.967,1.109
							c-46.939,0.469-84.979,0.733-84.98,0.589c-0.001-0.144,38.036-0.641,84.975-1.109
							C235.76,300.121,273.808,299.857,273.81,300.001z"/>
					</g>
				</g>
				<g style="clip-path:url(#SVGID_00000013161586151275836900000016976974149319441562_);">
					<g>
						<path style="fill:#E0E0E0;" d="M273.81,320.825c0.001,0.144-38.044,0.641-84.967,1.109
							c-46.939,0.469-84.979,0.732-84.98,0.589c-0.001-0.144,38.036-0.641,84.975-1.109
							C235.76,320.945,273.808,320.681,273.81,320.825z"/>
					</g>
				</g>
				<g style="clip-path:url(#SVGID_00000013161586151275836900000016976974149319441562_);">
					<g>
						<path style="fill:#E0E0E0;" d="M273.81,341.649c0.001,0.144-38.044,0.641-84.967,1.109
							c-46.939,0.469-84.979,0.733-84.98,0.589c-0.001-0.144,38.036-0.64,84.975-1.109
							C235.76,341.769,273.808,341.505,273.81,341.649z"/>
					</g>
				</g>
				<g style="clip-path:url(#SVGID_00000013161586151275836900000016976974149319441562_);">
					<g>
						<path style="fill:#E0E0E0;" d="M273.81,362.474c0.001,0.144-38.044,0.641-84.967,1.109
							c-46.939,0.469-84.979,0.732-84.98,0.589c-0.001-0.144,38.036-0.64,84.975-1.109
							C235.76,362.593,273.808,362.33,273.81,362.474z"/>
					</g>
				</g>
				<g style="clip-path:url(#SVGID_00000013161586151275836900000016976974149319441562_);">
					<path style="fill:none;" d="M241.452,230.777c0.671,1.132,1.063,2.449,1.063,3.861c0,4.192-3.399,7.591-7.591,7.591
						s-7.591-3.399-7.591-7.591c0-1.412,0.392-2.729,1.063-3.861h-8.805c0.671,1.132,1.064,2.449,1.064,3.861
						c0,4.192-3.399,7.591-7.591,7.591c-4.192,0-7.591-3.399-7.591-7.591c0-1.412,0.392-2.729,1.064-3.861h-8.805
						c0.671,1.132,1.064,2.449,1.064,3.861c0,4.192-3.399,7.591-7.591,7.591c-4.192,0-7.591-3.399-7.591-7.591
						c0-1.412,0.392-2.729,1.063-3.861h-8.805c0.671,1.132,1.064,2.449,1.064,3.861c0,4.192-3.399,7.591-7.591,7.591
						s-7.591-3.399-7.591-7.591c0-1.412,0.392-2.729,1.063-3.861h-8.805c0.671,1.132,1.064,2.449,1.064,3.861
						c0,4.192-3.399,7.591-7.591,7.591s-7.591-3.399-7.591-7.591c0-1.412,0.392-2.729,1.063-3.861h-8.805
						c0.671,1.132,1.063,2.449,1.063,3.861c0,4.192-3.399,7.591-7.591,7.591c-4.192,0-7.591-3.399-7.591-7.591
						c0-1.412,0.392-2.729,1.063-3.861h-5.515v156.99h130.783v-156.99H241.452z"/>
				</g>
			</g>
			<g>
				<path style="fill:#E0E0E0;" d="M169.989,253.517c0.945,4.647,2.967,9.362,6.871,12.054c4.437,3.059,10.924,2.708,15.005-0.812
					c4.081-3.52,5.38-9.886,3.004-14.723c-2.375-4.837-8.207-7.702-13.487-6.626"/>
			</g>
			<g>
				<g>
					<path style="fill:#E8505B;" d="M169.747,253.479c0.289,5.395,4.896,9.535,10.292,9.246c5.395-0.289,9.535-4.896,9.246-10.292
						c-0.289-5.395-4.896-9.535-10.292-9.246C173.598,243.476,169.458,248.083,169.747,253.479z"/>
				</g>
				<g>
					<path style="fill:#E8505B;" d="M164.127,249.861c0.173,3.238,2.938,5.722,6.176,5.548c3.238-0.173,5.722-2.938,5.548-6.176
						c-0.173-3.238-2.938-5.722-6.176-5.548C166.438,243.859,163.954,246.624,164.127,249.861z"/>
				</g>
				<g>
					<g>
						<path style="fill:#263238;" d="M169.595,255.292c0.01-0.101,0.889,0.128,2.209-0.248c1.282-0.347,3.04-1.464,3.734-3.423
							c0.678-1.958,0.089-3.94-0.633-5.06c-0.726-1.166-1.514-1.607-1.454-1.686c0.015-0.026,0.224,0.054,0.558,0.278
							c0.336,0.221,0.777,0.617,1.202,1.204c0.847,1.138,1.566,3.265,0.818,5.439c-0.38,1.066-1.079,1.927-1.839,2.52
							c-0.769,0.588-1.584,0.939-2.295,1.085c-0.711,0.15-1.306,0.141-1.702,0.071C169.795,255.406,169.589,255.321,169.595,255.292
							z"/>
					</g>
				</g>
				<g>
					<g>
						<path style="fill:#263238;" d="M174.513,245.954c0.048-0.146,1.561,0.607,3.436,0.17c1.879-0.425,2.911-1.762,3.018-1.652
							c0.053,0.037-0.122,0.422-0.6,0.902c-0.47,0.477-1.278,1.022-2.301,1.257c-1.022,0.235-1.988,0.097-2.619-0.127
							C174.807,246.281,174.481,246.011,174.513,245.954z"/>
					</g>
				</g>
				<g>
					<g>
						<path style="fill:#263238;" d="M176.024,260.82c-0.08,0.008-0.155-0.473-0.425-1.185c-0.265-0.709-0.769-1.65-1.602-2.437
							c-0.833-0.787-1.801-1.237-2.524-1.461c-0.726-0.229-1.21-0.277-1.207-0.357c-0.001-0.062,0.499-0.149,1.298,0
							c0.79,0.143,1.877,0.576,2.792,1.439c0.914,0.863,1.408,1.924,1.595,2.705C176.144,260.314,176.086,260.818,176.024,260.82z"
							/>
					</g>
				</g>
			</g>
		</g>
		<g>
			<g>
				<path style="fill:#263238;" d="M229.704,286.862c0,0.144-20.869,0.26-46.606,0.26c-25.746,0-46.611-0.117-46.611-0.26
					s20.865-0.26,46.611-0.26C208.835,286.602,229.704,286.718,229.704,286.862z"/>
			</g>
		</g>
		<g>
			<g>
				<path style="fill:#263238;" d="M229.704,296.551c0,0.144-20.869,0.26-46.606,0.26c-25.746,0-46.611-0.116-46.611-0.26
					c0-0.144,20.865-0.26,46.611-0.26C208.835,296.291,229.704,296.407,229.704,296.551z"/>
			</g>
		</g>
		<g>
			<g>
				<path style="fill:#263238;" d="M229.704,306.24c0,0.144-20.869,0.26-46.606,0.26c-25.746,0-46.611-0.117-46.611-0.26
					s20.865-0.26,46.611-0.26C208.835,305.98,229.704,306.097,229.704,306.24z"/>
			</g>
		</g>
		<g>
			<g>
				<path style="fill:#263238;" d="M229.704,315.93c0,0.144-20.869,0.26-46.606,0.26c-25.746,0-46.611-0.117-46.611-0.26
					c0-0.144,20.865-0.26,46.611-0.26C208.835,315.669,229.704,315.786,229.704,315.93z"/>
			</g>
		</g>
		<g>
			<g>
				<path style="fill:#263238;" d="M229.704,325.619c0,0.144-20.869,0.26-46.606,0.26c-25.746,0-46.611-0.117-46.611-0.26
					s20.865-0.26,46.611-0.26C208.835,325.358,229.704,325.475,229.704,325.619z"/>
			</g>
		</g>
		<g>
			<g>
				<path style="fill:#263238;" d="M229.704,335.308c0,0.144-20.869,0.26-46.606,0.26c-25.746,0-46.611-0.117-46.611-0.26
					c0-0.144,20.865-0.26,46.611-0.26C208.835,335.048,229.704,335.164,229.704,335.308z"/>
			</g>
		</g>
		<g>
			<g>
				<path style="fill:#263238;" d="M229.704,344.997c0,0.144-20.869,0.26-46.606,0.26c-25.746,0-46.611-0.117-46.611-0.26
					s20.865-0.26,46.611-0.26C208.835,344.737,229.704,344.854,229.704,344.997z"/>
			</g>
		</g>
	</g>
</g>
<g id="Character">
	<g>
		<g>
			<g>
				<g>
					<path style="fill:#263238;" d="M346.24,441.659c24.143-7.993,7.587-39.926,7.587-39.926l-105.514,9.924
						c-8.471-0.057-15.369,6.794-15.369,15.265l0,0c0,8.431,6.835,15.266,15.266,15.266L346.24,441.659"/>
				</g>
			</g>
			<g>
				<g>
					<path style="fill:#263238;" d="M370.941,441.628c23.524-7.94,7.314-39.902,7.314-39.902l-102.862,9.698
						c-10.046,0.131-14.953,4.977-14.953,15.23l0,0c0.018,8.43,3.134,15.536,14.918,15.296L370.941,441.628"/>
				</g>
			</g>
			<g>
				<g>
					<g>
						<path style="fill:#455A64;" d="M347.063,407.123c-0.001-0.009-0.1-0.013-0.293-0.012c-0.223,0.005-0.505,0.012-0.857,0.021
							c-0.791,0.033-1.892,0.078-3.292,0.135c-2.897,0.144-7.022,0.348-12.102,0.6c-10.25,0.562-24.346,1.335-39.916,2.188
							c-1.948,0.093-3.877,0.262-5.77,0.289c-1.905,0.03-3.781,0.109-5.621,0.22c-1.84,0.112-3.647,0.249-5.414,0.44
							c-1.751,0.204-3.531,0.392-5.144,1.055c-1.613,0.628-3.088,1.549-4.278,2.741c-1.193,1.192-2.046,2.662-2.594,4.163
							c-0.556,1.505-0.86,3.032-1.056,4.5c-0.191,1.469-0.293,2.892-0.283,4.254c0.011,2.72,0.486,5.194,1.358,7.164
							c0.863,1.977,2.066,3.418,3.199,4.358c1.137,0.947,2.189,1.419,2.913,1.645c0.727,0.23,0.74,0.154,0.033-0.107
							c-0.704-0.257-1.722-0.753-2.817-1.706c-1.09-0.946-2.243-2.378-3.06-4.318c-0.826-1.935-1.267-4.36-1.254-7.036
							c0.002-1.339,0.114-2.743,0.313-4.192c0.204-1.445,0.513-2.938,1.06-4.391c0.542-1.452,1.362-2.845,2.507-3.978
							c1.143-1.133,2.566-2.014,4.127-2.615c1.558-0.634,3.269-0.808,5.028-1.008c1.756-0.184,3.557-0.316,5.392-0.424
							c1.835-0.107,3.704-0.182,5.6-0.21c1.908-0.026,3.827-0.193,5.779-0.286c15.571-0.917,29.668-1.748,39.918-2.352
							c5.078-0.326,9.2-0.591,12.096-0.776c1.398-0.102,2.498-0.182,3.287-0.239c0.351-0.031,0.632-0.056,0.854-0.076
							C346.965,407.147,347.063,407.132,347.063,407.123z"/>
					</g>
				</g>
			</g>
			<g>
				<g>
					<path style="fill:#455A64;" d="M370.292,417.194c0.013,0.029-0.274,0.201-0.836,0.415c-0.561,0.217-1.417,0.437-2.499,0.509
						c-2.124,0.168-5.346-0.495-7.734-2.916c-2.362-2.449-2.943-5.687-2.721-7.806c0.099-1.08,0.34-1.93,0.572-2.486
						c0.229-0.557,0.407-0.839,0.436-0.825c0.111,0.037-0.519,1.241-0.609,3.336c-0.113,2.046,0.512,5.092,2.727,7.386
						c2.237,2.271,5.266,2.973,7.314,2.911C369.037,417.682,370.257,417.083,370.292,417.194z"/>
				</g>
			</g>
		</g>
		<g>
			<g>
				<g>
					<g>
						<g>
							<path style="fill:#E8505B;" d="M339.312,315.072c-13.089,1.467-15.21,10.354-21.316,19.111l-8.823,16.288l16.226,9.951
								l-0.562,25.002l-6.636,22.118l61.125-3.457l-6.804-21.021l8.137-32.107c0.617-4.374,2.301-12.509,1.162-16.813
								c-3.559-13.452-17.546-17.384-27.161-19.883c-1.983-0.515-11.559-0.483-13.218-0.076"/>
						</g>
					</g>
				</g>
			</g>
			<g>
				<g>
					<path style="fill:#FAFAFA;" d="M332.409,383.478c-0.026-0.041,0.943-0.247,2.241,0.477c0.626,0.363,1.309,0.966,1.744,1.852
						c0.445,0.881,0.542,2.029,0.22,3.112c-0.327,1.082-1.04,1.988-1.897,2.478c-0.851,0.501-1.753,0.628-2.476,0.586
						c-1.482-0.111-2.177-0.816-2.133-0.836c0.041-0.091,0.782,0.463,2.144,0.468c0.667-0.006,1.476-0.164,2.215-0.628
						c0.74-0.452,1.355-1.255,1.648-2.218c0.286-0.965,0.214-1.973-0.155-2.758c-0.361-0.794-0.95-1.371-1.503-1.744
						C333.317,383.522,332.393,383.576,332.409,383.478z"/>
				</g>
			</g>
			<g>
				<g>
					<g>
						<g>
							<path style="fill:#263238;" d="M346.961,356.478c-0.034,0.102,6.242,2.27,14.016,4.844
								c7.776,2.575,14.106,4.579,14.139,4.477c0.034-0.101-6.241-2.27-14.017-4.845
								C353.325,358.381,346.995,356.376,346.961,356.478z"/>
						</g>
					</g>
				</g>
			</g>
			<g style="opacity:0.3;">
				<g>
					<g>
						<path d="M372.123,369.905c-1.083,4.557-2.743,11.33-4.509,15.67c-1.3,3.194-2.733,6.39-4.934,9.045
							c-2.997,3.616-7.294,6.024-11.835,7.222c-4.541,1.198-9.326,1.245-13.989,0.687l23.246-13.133l6.183-21.487L372.123,369.905z"
							/>
					</g>
				</g>
			</g>
			<g>
				<g>
					<g>
						<path style="fill:#263238;" d="M324.853,384.738c0.039,0.001,0.095-0.631,0.164-1.775c0.061-1.242,0.14-2.874,0.237-4.845
							c0.175-4.092,0.378-9.745,0.567-15.99c0.189-6.247,0.329-11.903,0.402-15.999c0.023-1.974,0.042-3.608,0.057-4.851
							c0.001-1.146-0.017-1.781-0.056-1.782c-0.039-0.002-0.095,0.63-0.164,1.773c-0.061,1.242-0.14,2.874-0.236,4.844
							c-0.175,4.092-0.378,9.747-0.567,15.996c-0.189,6.247-0.329,11.904-0.402,15.999c-0.023,1.973-0.043,3.607-0.057,4.851
							C324.796,384.103,324.814,384.737,324.853,384.738z"/>
					</g>
				</g>
			</g>
			<g>
				<g>
					<g>
						<path style="fill:none;stroke:#000000;stroke-width:0.25;stroke-miterlimit:10;" d="M348.953,368.547"/>
					</g>
				</g>
			</g>
			<g>
				<g>
					<g>
						<path style="fill:#263238;" d="M311.551,346.136c-0.079,0.135,2.989,2.084,6.852,4.354c3.865,2.271,7.06,4.002,7.139,3.868
							c0.079-0.135-2.989-2.084-6.853-4.355C314.827,347.733,311.63,346.001,311.551,346.136z"/>
					</g>
				</g>
			</g>
			<g>
				<g>
					<path style="fill:#FAFAFA;" d="M342.097,335.972c0.047,0.009-0.469,0.855-1.887,1.3c-0.694,0.205-1.602,0.286-2.544-0.008
						c-0.945-0.283-1.846-1.002-2.41-1.981c-0.561-0.981-0.728-2.122-0.495-3.081c0.222-0.962,0.75-1.705,1.277-2.201
						c1.1-1,2.09-1.019,2.074-0.974c0.038,0.092-0.874,0.249-1.814,1.235c-0.454,0.488-0.897,1.184-1.067,2.04
						c-0.181,0.848-0.021,1.846,0.477,2.721c0.504,0.871,1.285,1.513,2.109,1.784c0.825,0.284,1.649,0.253,2.3,0.108
						C341.441,336.601,342.037,335.893,342.097,335.972z"/>
				</g>
			</g>
			<g>
				<g>
					<path style="fill:#FAFAFA;" d="M329.228,353.219c-0.026,0.041-0.631-0.743-0.541-2.227c0.056-0.722,0.304-1.599,0.914-2.374
						c0.601-0.783,1.595-1.367,2.71-1.546c1.117-0.174,2.242,0.077,3.055,0.636c0.82,0.55,1.326,1.308,1.601,1.978
						c0.542,1.384,0.207,2.316,0.17,2.285c-0.099,0.003,0.079-0.905-0.507-2.135c-0.294-0.598-0.787-1.26-1.525-1.725
						c-0.728-0.471-1.717-0.678-2.713-0.525c-0.994,0.161-1.872,0.662-2.419,1.334c-0.56,0.669-0.825,1.451-0.921,2.11
						C328.874,352.381,329.324,353.191,329.228,353.219z"/>
				</g>
			</g>
			<g>
				<g>
					<path style="fill:#FAFAFA;" d="M329.228,375.289c-0.026,0.041-0.631-0.743-0.541-2.227c0.056-0.722,0.304-1.599,0.914-2.374
						c0.601-0.783,1.595-1.367,2.71-1.546c1.117-0.174,2.242,0.077,3.055,0.636c0.82,0.55,1.326,1.308,1.601,1.978
						c0.542,1.384,0.207,2.316,0.17,2.285c-0.099,0.003,0.079-0.905-0.507-2.135c-0.294-0.598-0.787-1.26-1.525-1.725
						c-0.728-0.471-1.717-0.678-2.713-0.525c-0.994,0.161-1.872,0.662-2.419,1.334c-0.56,0.669-0.825,1.451-0.921,2.11
						C328.874,374.452,329.324,375.261,329.228,375.289z"/>
				</g>
			</g>
			<g>
				<g>
					<path style="fill:#FAFAFA;" d="M348.533,347.77c0.019,0.044-0.969,0.103-2.144-0.808c-0.565-0.453-1.149-1.152-1.446-2.093
						c-0.308-0.938-0.231-2.088,0.25-3.11c0.486-1.021,1.327-1.809,2.247-2.165c0.916-0.367,1.828-0.358,2.536-0.208
						c1.449,0.332,2.03,1.134,1.984,1.147c-0.054,0.084-0.704-0.575-2.05-0.785c-0.66-0.094-1.484-0.06-2.284,0.288
						c-0.799,0.336-1.528,1.037-1.962,1.945c-0.427,0.911-0.508,1.919-0.261,2.75c0.238,0.84,0.734,1.499,1.225,1.95
						C347.642,347.59,348.563,347.675,348.533,347.77z"/>
				</g>
			</g>
			<g>
				<g>
					<path style="fill:#FAFAFA;" d="M340.704,356.587c0.008-0.048,0.871,0.439,1.365,1.84c0.229,0.686,0.342,1.591,0.081,2.543
						c-0.249,0.955-0.937,1.88-1.895,2.478c-0.961,0.595-2.095,0.802-3.062,0.602c-0.969-0.188-1.73-0.689-2.244-1.199
						c-1.038-1.064-1.092-2.053-1.046-2.039c0.091-0.041,0.28,0.865,1.298,1.77c0.504,0.436,1.215,0.854,2.076,0.995
						c0.854,0.151,1.846-0.044,2.703-0.572c0.853-0.534,1.467-1.338,1.709-2.17c0.255-0.834,0.195-1.657,0.027-2.302
						C341.356,357.22,340.627,356.65,340.704,356.587z"/>
				</g>
			</g>
			<g>
				<g>
					<path style="fill:#FAFAFA;" d="M324.82,326.626c-0.026-0.041,0.943-0.247,2.241,0.477c0.626,0.363,1.309,0.966,1.744,1.852
						c0.445,0.881,0.542,2.029,0.219,3.112c-0.327,1.082-1.04,1.988-1.897,2.478c-0.851,0.501-1.753,0.628-2.476,0.586
						c-1.482-0.111-2.177-0.816-2.133-0.836c0.041-0.091,0.782,0.463,2.144,0.468c0.667-0.006,1.476-0.163,2.215-0.628
						c0.74-0.452,1.355-1.255,1.648-2.218c0.286-0.965,0.214-1.974-0.155-2.758c-0.361-0.794-0.95-1.371-1.503-1.744
						C325.728,326.669,324.804,326.724,324.82,326.626z"/>
				</g>
			</g>
			<g>
				<g>
					<path style="fill:#FAFAFA;" d="M352.382,353.143c-0.03,0.038-0.552-0.803-0.311-2.27c0.129-0.712,0.465-1.559,1.152-2.268
						c0.678-0.717,1.726-1.198,2.854-1.261c1.129-0.059,2.223,0.305,2.974,0.945c0.759,0.631,1.185,1.437,1.391,2.131
						c0.398,1.432-0.03,2.325-0.064,2.29c-0.099-0.007,0.171-0.892-0.286-2.176c-0.232-0.625-0.654-1.334-1.341-1.871
						c-0.676-0.543-1.639-0.85-2.645-0.799c-1.005,0.058-1.929,0.467-2.542,1.08c-0.625,0.609-0.968,1.359-1.131,2.005
						C352.115,352.274,352.48,353.125,352.382,353.143z"/>
				</g>
			</g>
			<g>
				<g>
					<path style="fill:#FAFAFA;" d="M342.483,369.346c-0.026-0.041,0.943-0.247,2.241,0.477c0.626,0.363,1.309,0.966,1.744,1.853
						c0.445,0.881,0.542,2.029,0.219,3.112c-0.327,1.082-1.04,1.988-1.897,2.478c-0.851,0.501-1.753,0.628-2.476,0.586
						c-1.482-0.111-2.177-0.816-2.133-0.836c0.041-0.091,0.782,0.463,2.144,0.468c0.667-0.006,1.476-0.163,2.215-0.628
						c0.74-0.452,1.355-1.255,1.648-2.218c0.286-0.965,0.214-1.974-0.155-2.758c-0.361-0.794-0.95-1.371-1.503-1.744
						C343.391,369.39,342.467,369.444,342.483,369.346z"/>
				</g>
			</g>
			<g>
				<g>
					<path style="fill:#FAFAFA;" d="M358.433,398.233c-0.045,0.018-0.072-0.972,0.875-2.118c0.47-0.55,1.187-1.112,2.138-1.379
						c0.947-0.278,2.094-0.165,3.1,0.348c1.005,0.517,1.766,1.383,2.093,2.314c0.338,0.927,0.3,1.838,0.128,2.541
						c-0.378,1.438-1.197,1.993-1.209,1.946c-0.082-0.056,0.597-0.685,0.849-2.024c0.115-0.657,0.107-1.481-0.216-2.292
						c-0.31-0.81-0.988-1.56-1.883-2.022c-0.897-0.456-1.902-0.568-2.74-0.348c-0.847,0.211-1.521,0.686-1.987,1.162
						C358.641,397.348,358.526,398.266,358.433,398.233z"/>
				</g>
			</g>
			<g>
				<g>
					<path style="fill:#FAFAFA;" d="M369.975,382.337c-0.012-0.047,0.973,0.055,1.986,1.143c0.484,0.538,0.949,1.322,1.089,2.299
						c0.152,0.975-0.109,2.098-0.749,3.029c-0.644,0.929-1.601,1.571-2.567,1.774c-0.964,0.215-1.862,0.058-2.536-0.204
						c-1.376-0.561-1.82-1.446-1.773-1.452c0.067-0.074,0.602,0.681,1.896,1.105c0.636,0.199,1.455,0.299,2.301,0.084
						c0.843-0.202,1.675-0.777,2.25-1.604c0.569-0.831,0.811-1.812,0.701-2.672c-0.099-0.867-0.482-1.597-0.894-2.122
						C370.825,382.658,369.929,382.426,369.975,382.337z"/>
				</g>
			</g>
			<g>
				<g>
					<path style="fill:#FAFAFA;" d="M370.011,351.754c-0.012-0.047,0.973,0.055,1.986,1.143c0.484,0.538,0.949,1.322,1.09,2.299
						c0.152,0.975-0.109,2.098-0.749,3.029c-0.644,0.929-1.601,1.571-2.567,1.774c-0.964,0.215-1.862,0.059-2.536-0.204
						c-1.376-0.561-1.82-1.446-1.772-1.452c0.066-0.074,0.601,0.681,1.896,1.105c0.636,0.199,1.455,0.299,2.301,0.084
						c0.843-0.202,1.675-0.777,2.25-1.603c0.569-0.831,0.811-1.812,0.701-2.672c-0.099-0.867-0.482-1.597-0.894-2.122
						C370.861,352.076,369.965,351.843,370.011,351.754z"/>
				</g>
			</g>
			<g>
				<g>
					<path style="fill:#FAFAFA;" d="M376.585,346.129c0.021,0.043-0.964,0.145-2.178-0.713c-0.584-0.428-1.199-1.1-1.536-2.028
						c-0.348-0.923-0.322-2.076,0.114-3.118c0.44-1.041,1.246-1.865,2.15-2.262c0.9-0.407,1.81-0.438,2.524-0.319
						c1.462,0.268,2.078,1.044,2.032,1.059c-0.05,0.086-0.728-0.544-2.082-0.694c-0.663-0.065-1.485,0.005-2.27,0.388
						c-0.784,0.37-1.481,1.103-1.875,2.03c-0.387,0.929-0.424,1.939-0.14,2.759c0.274,0.828,0.799,1.465,1.309,1.894
						C375.687,345.988,376.611,346.033,376.585,346.129z"/>
				</g>
			</g>
			<g>
				<g>
					<path style="fill:#FAFAFA;" d="M365.464,329.271c0.021,0.043-0.964,0.145-2.178-0.713c-0.584-0.428-1.199-1.1-1.536-2.028
						c-0.348-0.923-0.322-2.076,0.114-3.118c0.44-1.041,1.246-1.865,2.15-2.262c0.9-0.407,1.81-0.438,2.524-0.319
						c1.462,0.268,2.078,1.044,2.032,1.059c-0.05,0.086-0.728-0.544-2.082-0.694c-0.663-0.065-1.485,0.005-2.27,0.388
						c-0.784,0.37-1.481,1.103-1.875,2.029c-0.387,0.929-0.424,1.939-0.14,2.759c0.274,0.828,0.799,1.465,1.309,1.894
						C364.566,329.13,365.491,329.175,365.464,329.271z"/>
				</g>
			</g>
			<g>
				<g>
					<path style="fill:#FAFAFA;" d="M321.005,348.696c0.021,0.043-0.964,0.145-2.178-0.713c-0.584-0.427-1.199-1.1-1.536-2.028
						c-0.348-0.923-0.322-2.076,0.114-3.118c0.44-1.041,1.246-1.865,2.15-2.262c0.9-0.407,1.81-0.438,2.524-0.319
						c1.462,0.268,2.078,1.044,2.032,1.059c-0.05,0.086-0.728-0.544-2.082-0.694c-0.663-0.065-1.485,0.005-2.27,0.388
						c-0.784,0.37-1.481,1.103-1.875,2.03c-0.387,0.929-0.424,1.939-0.14,2.759c0.274,0.828,0.799,1.465,1.309,1.894
						C320.107,348.555,321.031,348.6,321.005,348.696z"/>
				</g>
			</g>
			<g>
				<g>
					<path style="fill:#FAFAFA;" d="M365.588,333.135c-0.012-0.047,0.973,0.055,1.986,1.143c0.484,0.538,0.949,1.322,1.089,2.299
						c0.153,0.975-0.109,2.098-0.749,3.029c-0.644,0.929-1.601,1.571-2.567,1.774c-0.964,0.215-1.862,0.059-2.536-0.204
						c-1.376-0.561-1.82-1.446-1.773-1.452c0.067-0.074,0.601,0.681,1.896,1.105c0.636,0.199,1.455,0.299,2.301,0.084
						c0.843-0.202,1.675-0.777,2.25-1.603c0.569-0.831,0.811-1.812,0.701-2.672c-0.099-0.867-0.482-1.597-0.894-2.122
						C366.438,333.456,365.542,333.223,365.588,333.135z"/>
				</g>
			</g>
			<g>
				<g>
					<g>
						<g>
							<path style="fill:#263238;" d="M379.62,350.771c-0.008-0.003-0.052,0.116-0.132,0.347c-0.083,0.253-0.196,0.595-0.34,1.029
								c-0.295,0.929-0.717,2.256-1.252,3.941c-1.07,3.435-2.595,8.331-4.444,14.27l0.203-0.101
								c-7.584-2.8-16.996-6.274-27.173-10.031c-0.233-0.096-0.465-0.192-0.679-0.28l0.113,0.226
								c1.764-6.503,3.963-12.56,6.363-17.868c2.411-5.297,5.105-9.863,8.08-13.1c1.482-1.615,3.039-2.877,4.567-3.698
								c1.52-0.829,3.003-1.225,4.222-1.248c0.304-0.006,0.594-0.06,0.862-0.025c0.268,0.029,0.52,0.055,0.755,0.08
								c0.233,0.029,0.453,0.036,0.647,0.077c0.19,0.051,0.364,0.098,0.522,0.14c0.297,0.077,0.532,0.137,0.712,0.184
								c0.161,0.039,0.245,0.057,0.248,0.05c0.002-0.006-0.077-0.036-0.235-0.088c-0.178-0.056-0.411-0.129-0.705-0.221
								c-0.158-0.048-0.332-0.101-0.522-0.159c-0.195-0.047-0.416-0.061-0.651-0.096c-0.238-0.031-0.492-0.064-0.764-0.099
								c-0.273-0.04-0.566,0.007-0.876,0.008c-1.24,0.001-2.76,0.382-4.316,1.208c-1.564,0.817-3.156,2.083-4.665,3.703
								c-3.032,3.247-5.764,7.827-8.203,13.136c-2.429,5.324-4.642,11.384-6.415,17.92l-0.044,0.162l0.157,0.065
								c0.215,0.089,0.448,0.185,0.681,0.281c10.18,3.809,19.623,7.195,27.212,9.967l0.156,0.057l0.048-0.158
								c1.796-5.956,3.276-10.865,4.315-14.31c0.501-1.696,0.895-3.031,1.171-3.966c0.125-0.44,0.223-0.786,0.296-1.043
								C379.598,350.896,379.628,350.773,379.62,350.771z"/>
						</g>
					</g>
				</g>
			</g>
		</g>
		<g>
			<path style="fill:#FFBE9D;" d="M328.317,367.156l-5.256,16.469c-2.018,6.801-7.723,11.912-14.773,13.235l-35.153,6.598
				l-9.562-0.307l9.562-11.836l26.425-9.01c2.595-0.572,4.651-2.524,5.331-5.062l10.519-22.884l13.325,8.171L328.317,367.156z"/>
		</g>
		<g>
			<path style="fill:#FFBE9D;" d="M369.46,368.709l-5.733,18.75c-2.018,6.886-7.723,12.063-14.773,13.402l-35.153,6.681
				l-9.562-0.311l3.251-8.164l32.736-12.946c2.595-0.579,4.651-2.556,5.331-5.126l4.893-18.878L369.46,368.709z"/>
		</g>
		<g>
			<g>
				<g>
					<polygon style="fill:#455A64;" points="338.313,407.787 338.013,405.509 311.007,404.448 297.752,371.027 247.265,374.454 
						264.301,411.554 					"/>
				</g>
			</g>
			<g>
				<g>
					<path style="fill:#FFFFFF;" d="M277.885,392.707c0.782,1.234,2.417,1.601,3.651,0.819c1.234-0.782,1.601-2.417,0.819-3.651
						c-0.782-1.235-2.417-1.601-3.651-0.819C277.469,389.837,277.102,391.472,277.885,392.707z"/>
				</g>
			</g>
		</g>
		<g>
			<g>
				<g>
					<path style="fill:#263238;" d="M353.848,256.976c7.9,0.401,15.294,5.955,17.88,13.431c0.484,1.399,0.814,2.855,1.426,4.203
						c0.612,1.348,1.562,2.617,2.913,3.222c0.994,0.445,2.121,0.497,3.142,0.874c1.727,0.638,3.034,2.224,3.471,4.012
						c0.437,1.788,0.041,3.735-0.938,5.294c-0.49,0.781-1.143,1.538-1.186,2.46c-0.029,0.623,0.232,1.218,0.378,1.825
						c0.495,2.06-0.487,4.388-2.308,5.472c-1.821,1.084-4.335,0.838-5.91-0.579c-0.661,1.523-1.541,3.091-3.039,3.807
						c-1.498,0.716-3.709,0.073-4.021-1.558c-0.745,1.565-2.608,2.509-4.311,2.186c-1.703-0.323-3.09-1.885-3.21-3.614"/>
				</g>
				<g>
					<g>
						<path style="fill:#E8505B;" d="M329.878,281.605c-3.26-3.815-3.309-9.798-0.956-14.259c2.353-4.461,6.697-7.529,11.317-9.344
							c6.364-2.501,13.948-2.759,19.673,1.031c4.952,3.279,7.917,9.47,7.418,15.49c-0.499,6.02-4.441,11.61-9.862,13.986"/>
					</g>
					<g>
						<g>
							<path style="fill:#FAFAFA;" d="M367.527,272.309c-0.016,0.148-1.066,0.141-2.337,0.27c-1.273,0.121-2.301,0.332-2.346,0.19
								c-0.046-0.13,0.959-0.58,2.295-0.708C366.474,271.926,367.547,272.172,367.527,272.309z"/>
						</g>
					</g>
					<g>
						<g>
							<path style="fill:#FAFAFA;" d="M364.472,263.97c-0.006,0.15-0.966,0.212-2.101,0.478c-1.138,0.256-2.028,0.619-2.099,0.487
								c-0.071-0.118,0.765-0.718,1.983-0.994C363.47,263.657,364.485,263.833,364.472,263.97z"/>
						</g>
					</g>
					<g>
						<g>
							<path style="fill:#FAFAFA;" d="M358.497,258.396c0.011,0.152-1.358,0.335-2.953,0.869c-1.599,0.521-2.808,1.19-2.889,1.062
								c-0.08-0.109,1.052-1.008,2.726-1.556C357.051,258.213,358.497,258.261,358.497,258.396z"/>
						</g>
					</g>
					<g>
						<g>
							<path style="fill:#FAFAFA;" d="M348.551,256.186c0.041,0.149-1.238,0.552-2.537,1.51c-1.312,0.941-2.09,2.033-2.219,1.948
								c-0.121-0.056,0.506-1.355,1.913-2.369C347.106,256.249,348.535,256.053,348.551,256.186z"/>
						</g>
					</g>
					<g>
						<g>
							<path style="fill:#FAFAFA;" d="M337.089,259.859c0.08,0.125-0.332,0.521-0.687,1.094c-0.252,0.39-0.415,0.762-0.54,0.952
								l-0.236,0.358l-0.004-0.343c-0.001-0.115,0.019-0.185,0.062-0.2c0.043-0.015,0.102,0.026,0.174,0.116l-0.24,0.015
								c-0.031-0.237,0.049-0.719,0.344-1.177C336.39,259.992,337.023,259.736,337.089,259.859z"/>
						</g>
					</g>
					<g>
						<g>
							<path style="fill:#FAFAFA;" d="M365.428,281.054c-0.002,0.139-0.902,0.218-1.947-0.108c-1.047-0.321-1.745-0.895-1.668-1.01
								c0.077-0.127,0.846,0.215,1.822,0.513C364.607,280.754,365.436,280.905,365.428,281.054z"/>
						</g>
					</g>
				</g>
				<g>
					<g>
						<path style="fill:#263238;" d="M381.204,273.034c0.022-0.026-0.186,0.657-1.228,0.991c-0.498,0.151-1.207,0.184-1.887-0.204
							c-0.675-0.38-1.2-1.204-1.256-2.172c-0.092-0.972,0.459-2.073,1.436-2.666c0.952-0.629,2.332-0.726,3.478-0.153
							c1.148,0.533,2.11,1.673,2.351,3.05c0.255,1.355-0.066,2.863-0.979,4.021c-0.918,1.187-2.438,1.69-3.784,1.649
							c-1.367-0.034-2.638-0.501-3.67-1.179c-2.072-1.382-3.292-3.271-4.342-4.732c-1.028-1.496-1.907-2.662-2.6-3.396
							c-0.687-0.738-1.131-1.085-1.104-1.119c0.011-0.014,0.132,0.059,0.352,0.214c0.215,0.161,0.527,0.408,0.897,0.762
							c0.748,0.7,1.688,1.854,2.755,3.323c1.084,1.435,2.328,3.262,4.303,4.543c0.974,0.626,2.168,1.048,3.419,1.072
							c1.237,0.027,2.565-0.425,3.369-1.464c0.809-1.023,1.109-2.392,0.885-3.6c-0.207-1.222-1.042-2.222-2.059-2.714
							c-1.014-0.515-2.191-0.447-3.042,0.088c-0.866,0.514-1.35,1.429-1.295,2.282c0.027,0.852,0.466,1.59,1.039,1.94
							c0.574,0.359,1.219,0.369,1.685,0.257C380.896,273.587,381.164,272.981,381.204,273.034z"/>
					</g>
				</g>
			</g>
			<g>
				<g>
					<g>
						<g>
							<g>
								<g>
									<g>
										<g>
											<g>
												<g>
													<path style="fill:#FFBE9D;" d="M358.22,267.715c1.825,0.193,3.198,1.75,3.162,3.585l0,0l-2.003,47.732
														c-0.076,5.637-10.304,12.302-16.339,12.175l0,0c-6.095-0.128-4.303-6.597-4.391-11.959
														c-0.147-8.959-0.144-12.322-0.147-12.271c0,0-7.701-1.279-9.297-11.326c-0.793-4.997-0.542-13.19-0.12-19.887
														c0.38-6.028,4.374-13.424,10.38-12.788L358.22,267.715z"/>
												</g>
											</g>
										</g>
									</g>
									<g>
										<g>
											<g>
												<g>
													<g>
														<path style="fill:#263238;" d="M331.695,282.267c-0.024,0.681,0.532,1.262,1.243,1.3
															c0.709,0.038,1.304-0.481,1.328-1.162c0.024-0.68-0.532-1.263-1.241-1.301
															C332.315,281.066,331.719,281.587,331.695,282.267z"/>
													</g>
												</g>
											</g>
										</g>
										<g>
											<g>
												<g>
													<g>
														<g>
															<path style="fill:#263238;" d="M330.862,280.025c0.16,0.168,1.136-0.554,2.523-0.551
																c1.385-0.016,2.403,0.697,2.553,0.527c0.074-0.075-0.089-0.378-0.532-0.701c-0.436-0.321-1.18-0.634-2.044-0.63
																c-0.864,0.005-1.59,0.323-2.008,0.648C330.928,279.646,330.784,279.95,330.862,280.025z"/>
														</g>
													</g>
												</g>
											</g>
										</g>
									</g>
									<g>
										<g>
											<g>
												<g>
													<g>
														<path style="fill:#263238;" d="M345.251,282.267c-0.024,0.681,0.532,1.262,1.242,1.3
															c0.709,0.038,1.304-0.481,1.328-1.162c0.024-0.68-0.532-1.263-1.241-1.301
															C345.871,281.066,345.275,281.587,345.251,282.267z"/>
													</g>
												</g>
											</g>
										</g>
										<g>
											<g>
												<g>
													<g>
														<g>
															<path style="fill:#263238;" d="M344.492,280.284c0.16,0.168,1.138-0.554,2.523-0.551
																c1.385-0.016,2.403,0.697,2.553,0.527c0.074-0.075-0.087-0.378-0.532-0.701c-0.436-0.321-1.18-0.634-2.044-0.63
																c-0.864,0.005-1.59,0.323-2.008,0.648C344.56,279.905,344.414,280.209,344.492,280.284z"/>
														</g>
													</g>
												</g>
											</g>
										</g>
									</g>
									<g>
										<g>
											<g>
												<g>
													<g>
														<path style="fill:#263238;" d="M339.46,290.567c0.006-0.079-0.855-0.228-2.252-0.406
															c-0.354-0.037-0.689-0.107-0.749-0.348c-0.083-0.256,0.065-0.638,0.236-1.05c0.333-0.857,0.681-1.755,1.047-2.696
															c1.454-3.839,2.507-6.995,2.352-7.053s-1.46,3.008-2.914,6.847c-0.35,0.947-0.685,1.849-1.003,2.712
															c-0.134,0.402-0.365,0.859-0.184,1.39c0.095,0.265,0.355,0.457,0.582,0.518c0.227,0.069,0.426,0.073,0.601,0.083
															C338.583,290.64,339.455,290.646,339.46,290.567z"/>
													</g>
												</g>
											</g>
										</g>
									</g>
									<g>
										<g>
											<g>
												<g>
													<path style="fill:#EB996E;" d="M338.502,306.976c0,0,6.76,0.436,13.456-3.59c0,0-3.265,6.902-13.321,5.962
														L338.502,306.976z"/>
												</g>
											</g>
										</g>
									</g>
									<g>
										<g>
											<g>
												<g>
													<path style="fill:#EB996E;" d="M340.047,293.909c0.499-0.659,1.372-1.021,2.24-0.928
														c0.602,0.065,1.21,0.355,1.575,0.845c0.366,0.49,0.442,1.186,0.11,1.653c-0.374,0.526-1.156,0.648-1.818,0.46
														c-0.662-0.188-1.231-0.624-1.772-1.058c-0.15-0.12-0.302-0.245-0.396-0.41c-0.093-0.164-0.113-0.38,0.002-0.516"/>
												</g>
											</g>
										</g>
									</g>
									<g>
										<g>
											<g>
												<g>
													<g>
														<path style="fill:#263238;" d="M343.541,291.526c-0.225-0.013-0.228,1.492-1.517,2.56
															c-1.286,1.072-2.89,0.903-2.902,1.113c-0.021,0.094,0.357,0.292,1.034,0.311c0.664,0.023,1.634-0.191,2.423-0.844
															c0.786-0.655,1.124-1.529,1.175-2.147C343.812,291.891,343.644,291.518,343.541,291.526z"/>
													</g>
												</g>
											</g>
										</g>
									</g>
								</g>
							</g>
						</g>
						<g>
							<g>
								<g>
									<g>
										<path style="fill:#263238;" d="M343.869,277.856c0.137,0.377,1.521,0.198,3.148,0.394c1.631,0.163,2.943,0.64,3.159,0.302
											c0.096-0.162-0.132-0.516-0.663-0.882c-0.526-0.365-1.365-0.711-2.341-0.82c-0.977-0.107-1.871,0.048-2.463,0.289
											C344.111,277.381,343.81,277.677,343.869,277.856z"/>
									</g>
								</g>
							</g>
						</g>
						<g>
							<g>
								<g>
									<g>
										<path style="fill:#263238;" d="M331.372,276.012c0.244,0.315,1.199-0.012,2.348-0.027
											c1.148-0.056,2.121,0.212,2.345-0.118c0.098-0.16-0.055-0.475-0.48-0.774c-0.419-0.297-1.119-0.54-1.909-0.516
											c-0.789,0.025-1.473,0.311-1.873,0.633C331.398,275.534,331.265,275.858,331.372,276.012z"/>
									</g>
								</g>
							</g>
						</g>
					</g>
				</g>
				<g>
					<path style="fill:#FFBE9D;" d="M360.269,283.787c0.761-0.528,1.826-0.332,2.627,0.132c1.846,1.068,2.764,3.509,2.079,5.529
						c-0.685,2.02-2.9,3.398-5.014,3.122"/>
				</g>
				<g>
					<path style="fill:#263238;" d="M344.472,259.628c-3.662,0.122-6.439,1.236-9.654,2.994c-3.214,1.759-5.902,4.661-6.891,8.189
						c-0.21,0.749-0.329,1.602,0.081,2.263c0.541,0.872,1.82,1.017,2.756,0.594c0.935-0.423,1.607-1.26,2.241-2.067
						c0.475,1.844,2.304,3.245,4.208,3.223c1.904-0.021,3.701-1.463,4.135-3.316c0.015,1.929,1.945,3.524,3.873,3.455
						c1.928-0.069,3.635-1.556,4.277-3.376c0.358,1.715,0.741,3.486,1.767,4.905c1.026,1.42,2.884,2.396,4.549,1.853
						c-0.236,1.497-0.465,3.074,0.066,4.494c0.531,1.42,2.109,2.569,3.542,2.077c1.392-0.478,1.932-2.127,2.258-3.562
						c0.628-2.768,1.165-5.585,1.077-8.422c-0.088-2.836-0.847-5.721-2.587-7.964c-1.8-2.32-4.526-3.791-7.365-4.541
						c-2.839-0.749-5.809-0.833-8.745-0.796"/>
				</g>
				<g>
					<g>
						<path style="fill:#EB996E;" d="M360.971,289.572c0.029-0.071,0.39,0.086,0.875-0.137c0.478-0.189,0.912-0.895,0.862-1.717
							c-0.028-0.833-0.567-1.43-1.072-1.611c-0.503-0.206-0.873-0.105-0.894-0.183c-0.035-0.049,0.341-0.316,1.005-0.168
							c0.319,0.075,0.692,0.266,0.982,0.613c0.288,0.342,0.475,0.817,0.499,1.323c0.073,1.013-0.563,1.932-1.257,2.09
							C361.288,289.961,360.918,289.613,360.971,289.572z"/>
					</g>
				</g>
				<g>
					<g>
						<path style="fill:#E8505B;" d="M364.792,290.093c0.006-0.017,0.148,0.022,0.413,0.113c0.266,0.088,0.65,0.247,1.12,0.502
							c0.926,0.502,2.272,1.412,3.273,3.091c0.489,0.833,0.866,1.871,0.897,3.026c0.054,1.154-0.245,2.383-0.836,3.529
							c-0.603,1.139-1.511,2.19-2.673,2.981c-1.158,0.788-2.586,1.31-4.092,1.318c-3.046-0.001-5.645-1.95-6.788-4.242
							c-0.606-1.147-0.796-2.416-0.714-3.557c0.109-1.146,0.486-2.167,0.97-3.003c0.984-1.684,2.345-2.613,3.325-3.022
							c0.492-0.214,0.898-0.323,1.176-0.364c0.278-0.046,0.423-0.061,0.426-0.044c0.013,0.056-0.58,0.132-1.516,0.591
							c-0.924,0.451-2.193,1.392-3.09,3.019c-0.441,0.808-0.776,1.781-0.86,2.855c-0.056,1.068,0.132,2.239,0.711,3.306
							c1.087,2.133,3.55,3.945,6.357,3.94c2.818-0.017,5.221-1.894,6.346-4.003c1.195-2.148,0.987-4.572,0.042-6.148
							c-0.909-1.618-2.177-2.554-3.054-3.097C365.328,290.34,364.773,290.139,364.792,290.093z"/>
					</g>
				</g>
			</g>
		</g>
	</g>
</g>
<g id="Plant">
	<g>
		<g>
			<g>
				<g>
					<path style="fill:#263238;" d="M93.001,419.663c-0.008-0.004,0.044-0.129,0.152-0.367c0.122-0.259,0.284-0.607,0.492-1.049
						c0.418-0.927,0.961-2.331,1.446-4.199c0.956-3.733,1.29-9.439-0.123-16.216c-0.657-3.393-1.715-7.033-3.008-10.892
						c-1.273-3.866-2.752-7.967-3.959-12.401c-1.194-4.423-2.137-9.225-1.955-14.258c0.183-5.043,1.676-10.077,3.318-15.088
						c1.638-5.019,3.333-9.925,3.841-14.859c0.574-4.926-0.48-9.761-2.724-13.723c-2.173-4.004-4.908-7.429-6.955-10.976
						c-2.078-3.536-3.378-7.171-4.18-10.552c-1.553-6.817-1.009-12.562-0.265-16.348c0.807-3.806,1.706-5.773,1.706-5.773
						c0.008,0.003-0.026,0.133-0.101,0.384c-0.085,0.273-0.2,0.64-0.345,1.107c-0.301,0.973-0.69,2.425-1.06,4.321
						c-0.68,3.778-1.16,9.483,0.424,16.225c0.817,3.344,2.123,6.931,4.194,10.418c2.041,3.505,4.788,6.916,7.004,10.967
						c2.291,4.006,3.393,8.999,2.809,14.002c-0.511,5.018-2.218,9.957-3.853,14.969c-1.642,5.007-3.117,9.988-3.304,14.947
						c-0.186,4.956,0.733,9.711,1.908,14.113c1.188,4.412,2.649,8.514,3.906,12.391c1.276,3.871,2.322,7.54,2.959,10.957
						c1.377,6.827,0.984,12.59-0.042,16.336c-0.518,1.875-1.096,3.276-1.547,4.193c-0.228,0.435-0.407,0.775-0.54,1.03
						C93.077,419.552,93.009,419.668,93.001,419.663z"/>
				</g>
			</g>
			<g>
				<g>
					<path style="fill:#E8505B;" d="M86.306,309.135c0,0-4.155-13.288,3.299-21.068c0.262-0.273,0.722-0.144,0.79,0.228
						C90.793,290.489,91.291,297.173,86.306,309.135z"/>
				</g>
				<g>
					<g>
						<path style="fill:#263238;" d="M88.796,292.494c0.071,0.014-0.048,0.949-0.28,2.451c-0.273,1.689-0.594,3.671-0.948,5.861
							c-0.348,2.19-0.662,4.172-0.93,5.861c-0.228,1.501-0.364,2.431-0.44,2.425c-0.067-0.005-0.06-0.951,0.075-2.47
							c0.137-1.518,0.405-3.607,0.782-5.9c0.375-2.292,0.775-4.357,1.1-5.844C88.479,293.391,88.726,292.48,88.796,292.494z"/>
					</g>
				</g>
			</g>
			<g>
				<g>
					<path style="fill:#E8505B;" d="M91.188,340.475c0,0,2.541-13.689,12.769-17.08c0.359-0.119,0.706,0.211,0.591,0.571
						C103.873,326.092,101.187,332.233,91.188,340.475z"/>
				</g>
				<g>
					<g>
						<path style="fill:#263238;" d="M101.17,326.931c0.056,0.045-0.486,0.816-1.394,2.036c-1.031,1.365-2.242,2.967-3.579,4.737
							c-1.332,1.773-2.537,3.378-3.563,4.745c-0.903,1.22-1.459,1.979-1.523,1.938c-0.057-0.036,0.391-0.869,1.221-2.148
							c0.832-1.278,2.045-2.999,3.45-4.849c1.403-1.851,2.723-3.489,3.705-4.651C100.471,327.575,101.115,326.885,101.17,326.931z"
							/>
					</g>
				</g>
			</g>
			<g>
				<g>
					<path style="fill:#E8505B;" d="M88.424,374.816c0,0-1.544-13.837,7.258-20.052c0.309-0.218,0.737-0.003,0.732,0.375
						C96.386,357.368,95.599,364.025,88.424,374.816z"/>
				</g>
				<g>
					<g>
						<path style="fill:#263238;" d="M94.043,358.956c0.067,0.027-0.228,0.922-0.742,2.353c-0.59,1.606-1.283,3.49-2.049,5.572
							c-0.759,2.084-1.446,3.969-2.031,5.576c-0.51,1.43-0.821,2.317-0.895,2.297c-0.065-0.018,0.122-0.945,0.544-2.41
							c0.425-1.464,1.086-3.464,1.893-5.642c0.805-2.179,1.592-4.129,2.195-5.527C93.56,359.776,93.976,358.929,94.043,358.956z"/>
					</g>
				</g>
			</g>
			<g>
				<g>
					<path style="fill:#E8505B;" d="M96.128,409.358c0,0-1.048-13.883,7.971-19.779c0.317-0.207,0.736,0.023,0.718,0.401
						C104.709,392.206,103.685,398.83,96.128,409.358z"/>
				</g>
				<g>
					<g>
						<path style="fill:#263238;" d="M102.311,393.709c0.066,0.03-0.261,0.913-0.826,2.325c-0.647,1.583-1.407,3.442-2.247,5.495
							c-0.833,2.055-1.587,3.915-2.23,5.499c-0.561,1.411-0.903,2.286-0.976,2.263c-0.064-0.02,0.156-0.94,0.63-2.389
							c0.477-1.448,1.209-3.422,2.094-5.571c0.883-2.149,1.739-4.07,2.391-5.445C101.799,394.511,102.245,393.679,102.311,393.709z"
							/>
					</g>
				</g>
			</g>
			<g>
				<g>
					<path style="fill:#E8505B;" d="M80.335,297.46c0,0-12.341-6.445-12.583-17.217c-0.008-0.378,0.408-0.613,0.72-0.398
						C70.306,281.113,75.388,285.483,80.335,297.46z"/>
				</g>
				<g>
					<g>
						<path style="fill:#263238;" d="M70.314,283.943c0.06-0.04,0.638,0.704,1.538,1.93c1.002,1.386,2.179,3.013,3.479,4.811
							c1.305,1.793,2.486,3.416,3.491,4.798c0.901,1.221,1.464,1.975,1.406,2.025c-0.051,0.044-0.715-0.629-1.696-1.797
							c-0.978-1.17-2.267-2.835-3.624-4.721c-1.358-1.885-2.537-3.626-3.36-4.907C70.725,284.801,70.254,283.983,70.314,283.943z"/>
					</g>
				</g>
			</g>
			<g>
				<g>
					<path style="fill:#E8505B;" d="M93.587,325.997c0,0-12.71-5.684-13.605-16.421c-0.031-0.377,0.37-0.637,0.694-0.441
						C82.583,310.29,87.922,314.342,93.587,325.997z"/>
				</g>
				<g>
					<g>
						<path style="fill:#263238;" d="M82.764,313.114c0.057-0.044,0.679,0.664,1.652,1.833c1.085,1.323,2.358,2.875,3.765,4.591
							c1.411,1.711,2.688,3.259,3.776,4.577c0.974,1.164,1.581,1.882,1.526,1.936c-0.048,0.047-0.752-0.584-1.802-1.691
							c-1.047-1.108-2.435-2.692-3.904-4.492c-1.47-1.799-2.752-3.465-3.652-4.694C83.226,313.946,82.706,313.158,82.764,313.114z"
							/>
					</g>
				</g>
			</g>
			<g>
				<g>
					<path style="fill:#E8505B;" d="M86.273,357.829c0,0-8.726-10.848-4.633-20.815c0.144-0.35,0.62-0.398,0.819-0.076
						C83.632,338.834,86.538,344.873,86.273,357.829z"/>
				</g>
				<g>
					<g>
						<path style="fill:#263238;" d="M82.506,341.431c0.071-0.013,0.302,0.901,0.636,2.384c0.363,1.672,0.79,3.634,1.261,5.802
							c0.477,2.166,0.909,4.125,1.277,5.795c0.337,1.48,0.55,2.396,0.477,2.418c-0.064,0.02-0.404-0.863-0.834-2.326
							c-0.427-1.463-0.942-3.505-1.43-5.777c-0.489-2.271-0.872-4.339-1.113-5.842C82.538,342.381,82.435,341.443,82.506,341.431z"
							/>
					</g>
				</g>
			</g>
			<g>
				<g>
					<path style="fill:#E8505B;" d="M94.918,395.288c0,0-12.612-5.896-13.328-16.647c-0.025-0.378,0.381-0.63,0.701-0.429
						C84.18,379.398,89.449,383.54,94.918,395.288z"/>
				</g>
				<g>
					<g>
						<path style="fill:#263238;" d="M84.313,382.225c0.058-0.043,0.668,0.676,1.621,1.86c1.062,1.341,2.309,2.915,3.687,4.653
							c1.382,1.734,2.633,3.303,3.699,4.64c0.954,1.18,1.549,1.909,1.494,1.961c-0.049,0.046-0.743-0.597-1.773-1.721
							c-1.028-1.126-2.39-2.732-3.828-4.557c-1.439-1.823-2.694-3.511-3.572-4.754C84.761,383.064,84.255,382.268,84.313,382.225z"
							/>
					</g>
				</g>
			</g>
			<g>
				<g>
					<g>
						<path style="fill:#263238;" d="M120.039,340.549c0.012,0.001,0.017,0.105,0.016,0.307c-0.006,0.242-0.013,0.535-0.022,0.89
							c-0.037,0.837-0.087,1.966-0.149,3.376c-0.163,2.968-0.389,7.106-0.66,12.056l-0.001,0.012l-0.003,0.017
							c-0.9,5.038-3.466,10.622-6.912,16.043c-2.528,3.994-5.178,7.624-7.464,11.001c-2.3,3.367-4.242,6.486-5.596,9.25
							c-1.362,2.76-2.155,5.131-2.618,6.788c-0.222,0.832-0.388,1.48-0.484,1.924c-0.104,0.442-0.167,0.673-0.185,0.67
							c-0.018-0.003,0.011-0.24,0.082-0.691c0.063-0.452,0.198-1.11,0.391-1.955c0.405-1.682,1.151-4.094,2.483-6.897
							c1.322-2.808,3.246-5.969,5.529-9.358c2.27-3.401,4.906-7.038,7.421-11.011c3.428-5.395,5.981-10.893,6.915-15.851
							l-0.004,0.028c0.348-4.945,0.638-9.079,0.846-12.044c0.114-1.406,0.205-2.533,0.272-3.368
							c0.036-0.354,0.065-0.645,0.089-0.886C120.009,340.652,120.028,340.549,120.039,340.549z"/>
					</g>
				</g>
				<g>
					<g>
						<path style="fill:#E8505B;" d="M112.53,372.214c0,0,5.341-12.857-1.377-21.28c-0.236-0.296-0.706-0.209-0.807,0.156
							C109.75,353.238,108.649,359.85,112.53,372.214z"/>
					</g>
					<g>
						<g>
							<path style="fill:#263238;" d="M111.557,355.416c0.072-0.008,0.235,0.922,0.423,2.432c0.189,1.51,0.401,3.603,0.566,5.92
								c0.168,2.318,0.245,4.422,0.244,5.947c-0.003,1.525-0.082,2.467-0.15,2.466c-0.076-0.001-0.128-0.94-0.219-2.455
								c-0.114-1.706-0.248-3.708-0.396-5.921c-0.155-2.213-0.294-4.216-0.413-5.923
								C111.519,356.365,111.485,355.423,111.557,355.416z"/>
						</g>
					</g>
					<g style="opacity:0.3;">
						<path d="M112.53,372.214c0,0,5.341-12.857-1.377-21.28c-0.236-0.296-0.706-0.209-0.807,0.156
							C109.75,353.238,108.649,359.85,112.53,372.214z"/>
					</g>
				</g>
				<g>
					<g>
						<path style="fill:#E8505B;" d="M95.985,403.197c0,0,4.281-13.248-3.099-21.099c-0.259-0.276-0.721-0.151-0.792,0.221
							C91.676,384.509,91.115,391.188,95.985,403.197z"/>
					</g>
					<g>
						<g>
							<path style="fill:#263238;" d="M93.654,386.533c0.071-0.013,0.309,0.9,0.619,2.39c0.311,1.49,0.691,3.559,1.044,5.854
								c0.355,2.296,0.603,4.388,0.726,5.907c0.12,1.52,0.118,2.466,0.051,2.47c-0.076,0.005-0.204-0.926-0.417-2.429
								c-0.252-1.691-0.548-3.676-0.875-5.869c-0.333-2.193-0.635-4.178-0.892-5.87C93.693,387.482,93.583,386.547,93.654,386.533z"
								/>
						</g>
					</g>
					<g style="opacity:0.3;">
						<path d="M95.985,403.197c0,0,4.281-13.248-3.099-21.099c-0.259-0.276-0.721-0.151-0.792,0.221
							C91.676,384.509,91.115,391.188,95.985,403.197z"/>
					</g>
				</g>
				<g>
					<g>
						<path style="fill:#E8505B;" d="M119.332,356.501c0,0,11.406-7.984,10.255-18.698c-0.04-0.376-0.484-0.555-0.765-0.302
							C127.167,338.996,122.691,343.985,119.332,356.501z"/>
					</g>
					<g style="opacity:0.3;">
						<path d="M119.332,356.501c0,0,11.406-7.984,10.255-18.698c-0.04-0.376-0.484-0.555-0.765-0.302
							C127.167,338.996,122.691,343.985,119.332,356.501z"/>
					</g>
					<g>
						<g>
							<path style="fill:#263238;" d="M127.523,341.803c0.064,0.032-0.296,0.904-0.948,2.28c-0.651,1.376-1.595,3.255-2.698,5.3
								c-1.102,2.046-2.166,3.863-2.984,5.149c-0.821,1.285-1.393,2.038-1.449,2.001c-0.064-0.042,0.396-0.862,1.133-2.189
								c0.819-1.501,1.78-3.262,2.842-5.209c1.057-1.951,2.014-3.716,2.829-5.22C126.982,342.584,127.459,341.771,127.523,341.803z"
								/>
						</g>
					</g>
				</g>
				<g>
					<g>
						<path style="fill:#E8505B;" d="M100.584,390.063c0,0,13.756-2.145,17.441-12.27c0.129-0.355-0.19-0.712-0.554-0.608
							C115.328,377.798,109.112,380.306,100.584,390.063z"/>
					</g>
					<g style="opacity:0.3;">
						<path d="M100.584,390.063c0,0,13.756-2.145,17.441-12.27c0.129-0.355-0.19-0.712-0.554-0.608
							C115.328,377.798,109.112,380.306,100.584,390.063z"/>
					</g>
					<g>
						<g>
							<path style="fill:#263238;" d="M114.412,380.475c0.044,0.057-0.664,0.681-1.855,1.63c-1.19,0.949-2.866,2.22-4.757,3.569
								c-1.89,1.351-3.646,2.514-4.947,3.309c-1.303,0.792-2.148,1.216-2.183,1.158c-0.039-0.066,0.736-0.599,1.981-1.467
								c1.396-0.986,3.035-2.145,4.846-3.424c1.808-1.286,3.445-2.449,4.839-3.44C113.582,380.938,114.368,380.418,114.412,380.475z
								"/>
						</g>
					</g>
				</g>
			</g>
		</g>
		<g>
			<polygon style="fill:#455A64;" points="87.461,415.379 83.448,442.387 108.456,442.387 105.214,415.379 			"/>
		</g>
		<g>
			<g>
				<path style="fill:#263238;" d="M106.213,423.748c0,0.144-4.515,0.26-10.084,0.26c-5.57,0-10.085-0.117-10.085-0.26
					s4.514-0.26,10.085-0.26C101.698,423.487,106.213,423.604,106.213,423.748z"/>
			</g>
		</g>
		<g>
			<g>
				<path style="fill:#263238;" d="M106.709,425.897c0,0.144-4.663,0.26-10.414,0.26c-5.753,0-10.415-0.117-10.415-0.26
					s4.662-0.26,10.415-0.26C102.046,425.637,106.709,425.753,106.709,425.897z"/>
			</g>
		</g>
	</g>
</g>
</svg>
